<?xml version="1.0" standalone="no"?>
<!DOCTYPE svg PUBLIC "-//W3C//DTD SVG 20010904//EN"
 "http://www.w3.org/TR/2001/REC-SVG-20010904/DTD/svg10.dtd">
<svg version="1.0" xmlns="http://www.w3.org/2000/svg"
 width="512.000000pt" height="512.000000pt" viewBox="0 0 512.000000 512.000000"
 preserveAspectRatio="xMidYMid meet">
<metadata>
Created by potrace 1.14, written by Peter Selinger 2001-2017
</metadata>
<g transform="translate(0.000000,512.000000) scale(0.100000,-0.100000)"
fill="#000000" stroke="none">
<path d="M4390 5111 c0 -14 18 -23 31 -15 8 4 7 9 -2 15 -18 11 -29 11 -29 0z"/>
<path d="M4935 5100 c3 -5 8 -10 11 -10 2 0 4 5 4 10 0 6 -5 10 -11 10 -5 0
-7 -4 -4 -10z"/>
<path d="M1955 4960 c-3 -5 -1 -10 4 -10 6 0 11 5 11 10 0 6 -2 10 -4 10 -3 0
-8 -4 -11 -10z"/>
<path d="M4556 4911 c-4 -5 -2 -12 3 -15 5 -4 12 -2 15 3 4 5 2 12 -3 15 -5 4
-12 2 -15 -3z"/>
<path d="M4188 4803 c7 -3 16 -2 19 1 4 3 -2 6 -13 5 -11 0 -14 -3 -6 -6z"/>
<path d="M4520 4761 c0 -6 5 -13 10 -16 6 -3 10 1 10 9 0 9 -4 16 -10 16 -5 0
-10 -4 -10 -9z"/>
<path d="M2412 4713 c-57 -44 -74 -107 -46 -170 9 -21 16 -41 16 -45 -1 -5 5
-8 13 -8 8 0 15 -4 15 -10 0 -5 7 -10 16 -10 9 0 12 -5 8 -12 -6 -10 -4 -10 8
0 13 10 18 10 24 1 4 -8 3 -9 -4 -5 -18 11 -14 0 5 -15 9 -8 14 -9 10 -3 -4 7
0 14 8 17 8 4 12 1 9 -7 -3 -7 4 -12 20 -12 14 0 22 4 20 8 -3 5 -10 6 -15 3
-5 -4 -9 -1 -9 5 0 8 7 9 18 5 49 -20 48 -20 34 -3 -11 14 -11 16 0 14 7 -1
18 -5 25 -9 7 -5 9 -1 6 13 -6 22 12 28 20 8 3 -8 6 -5 6 5 1 11 6 15 13 11 7
-4 8 -3 4 5 -4 6 -11 9 -15 7 -4 -3 -8 1 -8 8 0 8 7 12 15 8 10 -3 13 -1 8 6
-4 7 -3 12 2 12 6 0 13 7 16 16 4 10 2 13 -6 8 -8 -5 -9 -2 -5 10 4 10 4 23 0
29 -12 19 -12 37 -1 37 6 0 -1 9 -15 20 -16 13 -24 28 -22 40 2 11 0 22 -5 25
-5 3 -7 -4 -5 -15 5 -25 -12 -27 -19 -2 -7 20 -8 21 -82 26 -42 3 -56 0 -82
-21z"/>
<path d="M2165 4710 c-3 -5 -1 -10 4 -10 6 0 11 5 11 10 0 6 -2 10 -4 10 -3 0
-8 -4 -11 -10z"/>
<path d="M4432 4688 c2 -6 10 -14 16 -16 7 -2 10 2 6 12 -7 18 -28 22 -22 4z"/>
<path d="M2627 4679 c7 -7 15 -10 18 -7 3 3 -2 9 -12 12 -14 6 -15 5 -6 -5z"/>
<path d="M2650 4625 c-7 -9 -8 -15 -2 -15 5 0 12 7 16 15 3 8 4 15 2 15 -2 0
-9 -7 -16 -15z"/>
<path d="M4415 4620 c-3 -5 -1 -10 4 -10 6 0 11 5 11 10 0 6 -2 10 -4 10 -3 0
-8 -4 -11 -10z"/>
<path d="M4510 4600 c0 -13 5 -20 13 -17 6 2 12 10 12 17 0 7 -6 15 -12 18 -8
2 -13 -5 -13 -18z"/>
<path d="M3122 4578 c-20 -20 -14 -34 16 -32 27 1 37 22 17 36 -14 11 -19 10
-33 -4z"/>
<path d="M4030 4574 c0 -8 5 -12 10 -9 6 3 10 10 10 16 0 5 -4 9 -10 9 -5 0
-10 -7 -10 -16z"/>
<path d="M4220 4580 c0 -5 5 -10 11 -10 5 0 7 5 4 10 -3 6 -8 10 -11 10 -2 0
-4 -4 -4 -10z"/>
<path d="M4550 4570 c0 -5 5 -10 11 -10 5 0 7 5 4 10 -3 6 -8 10 -11 10 -2 0
-4 -4 -4 -10z"/>
<path d="M4460 4560 c0 -5 5 -10 11 -10 5 0 7 5 4 10 -3 6 -8 10 -11 10 -2 0
-4 -4 -4 -10z"/>
<path d="M3176 4527 c3 -10 9 -15 12 -12 3 3 0 11 -7 18 -10 9 -11 8 -5 -6z"/>
<path d="M4615 4501 c-3 -5 -1 -12 5 -16 5 -3 10 1 10 9 0 18 -6 21 -15 7z"/>
<path d="M3076 4487 c3 -10 9 -15 12 -12 3 3 0 11 -7 18 -10 9 -11 8 -5 -6z"/>
<path d="M1176 4425 c4 -8 10 -12 15 -9 11 6 2 24 -11 24 -5 0 -7 -7 -4 -15z"/>
<path d="M3281 4397 c-9 -12 -8 -16 3 -20 19 -7 32 11 19 24 -6 6 -14 5 -22
-4z"/>
<path d="M845 4377 c-23 -26 -25 -35 -7 -30 10 2 18 13 19 24 2 22 1 22 -12 6z"/>
<path d="M2975 4350 c3 -5 8 -10 11 -10 2 0 4 5 4 10 0 6 -5 10 -11 10 -5 0
-7 -4 -4 -10z"/>
<path d="M5010 4299 c0 -5 5 -7 10 -4 6 3 10 8 10 11 0 2 -4 4 -10 4 -5 0 -10
-5 -10 -11z"/>
<path d="M815 4280 c-3 -5 -1 -10 4 -10 6 0 11 5 11 10 0 6 -2 10 -4 10 -3 0
-8 -4 -11 -10z"/>
<path d="M4655 4280 c-3 -5 1 -10 9 -10 9 0 16 5 16 10 0 6 -4 10 -9 10 -6 0
-13 -4 -16 -10z"/>
<path d="M595 4240 c-3 -5 -1 -10 4 -10 6 0 11 5 11 10 0 6 -2 10 -4 10 -3 0
-8 -4 -11 -10z"/>
<path d="M4090 4239 c0 -5 5 -7 10 -4 6 3 10 8 10 11 0 2 -4 4 -10 4 -5 0 -10
-5 -10 -11z"/>
<path d="M500 4218 c0 -4 6 -8 14 -8 8 0 17 4 20 8 2 4 -4 8 -15 8 -10 0 -19
-4 -19 -8z"/>
<path d="M4141 4191 c-11 -7 -9 -11 8 -20 27 -15 47 -5 30 15 -13 16 -19 17
-38 5z"/>
<path d="M3975 4181 c-3 -6 -14 -8 -25 -6 -14 3 -20 -2 -20 -16 0 -26 21 -23
43 6 10 14 16 25 13 25 -3 0 -7 -4 -11 -9z"/>
<path d="M3316 4152 c-3 -6 -1 -14 5 -17 15 -10 25 3 12 16 -7 7 -13 7 -17 1z"/>
<path d="M3990 4139 c0 -5 5 -7 10 -4 6 3 10 8 10 11 0 2 -4 4 -10 4 -5 0 -10
-5 -10 -11z"/>
<path d="M2476 4108 c-3 -13 -6 -32 -6 -42 0 -11 -6 -27 -14 -35 -8 -9 -16
-38 -18 -66 -3 -43 -6 -50 -26 -53 -20 -3 -27 -17 -23 -49 2 -16 -2 -16 -50
-1 -33 9 -45 8 -79 -7 -22 -10 -42 -16 -44 -14 -2 2 -7 21 -10 43 -8 51 -11
53 -43 50 -15 -1 -39 -2 -52 -3 -23 -1 -23 -3 -16 -65 7 -69 -7 -98 -25 -51
-8 21 -15 25 -36 21 -45 -9 -53 -27 -40 -92 5 -26 2 -33 -17 -41 -12 -5 -34
-7 -48 -3 -15 5 -32 2 -42 -5 -16 -11 -16 -15 -2 -41 27 -52 13 -113 -30 -132
-28 -13 -50 1 -65 41 -5 16 -16 27 -23 25 -15 -6 -21 -81 -8 -106 6 -11 6 -24
0 -33 -5 -7 -9 -9 -9 -4 0 6 -5 3 -10 -5 -7 -11 -8 -5 -3 19 4 23 3 32 -5 27
-6 -3 -14 -1 -18 5 -4 8 -3 9 4 5 15 -9 15 3 -1 32 l-13 23 -11 -23 c-5 -13
-9 -33 -7 -45 3 -17 -1 -23 -16 -23 -24 0 -53 -42 -47 -67 3 -15 6 -14 15 7 6
14 11 18 12 10 0 -13 1 -13 10 0 8 13 10 12 10 -2 0 -10 4 -18 9 -18 15 0 6
-32 -14 -46 -23 -17 -32 -10 -12 10 8 8 18 12 22 8 5 -4 5 -2 1 5 -13 23 -76
-7 -76 -36 0 -6 -12 -11 -27 -12 -49 -2 -80 -6 -97 -12 -9 -4 -23 -4 -31 -1
-13 5 -12 11 6 35 11 16 16 29 10 29 -6 0 -11 -5 -11 -11 0 -7 -17 -10 -44 -8
-24 2 -42 1 -40 -2 2 -3 -17 -7 -41 -7 -85 -4 -86 -6 -51 -95 29 -73 32 -78
56 -72 42 11 44 11 45 -10 0 -11 3 -24 6 -30 14 -23 62 -182 65 -214 4 -43 -6
-56 -70 -88 -28 -14 -52 -26 -53 -27 -1 -1 9 -29 22 -62 34 -82 32 -98 -12
-126 -21 -12 -41 -22 -45 -20 -5 1 -8 -3 -8 -9 0 -6 -7 -8 -16 -5 -8 3 -12 2
-9 -4 6 -9 -8 -14 -28 -11 -5 1 -6 -3 -3 -8 7 -10 -22 -24 -34 -16 -5 3 -12 0
-16 -6 -4 -8 -3 -9 4 -5 7 4 12 2 12 -5 0 -6 -8 -9 -20 -6 -11 3 -23 0 -27 -5
-4 -7 -1 -8 8 -4 8 4 3 -1 -11 -12 -13 -11 -27 -19 -31 -16 -4 2 -12 -3 -19
-11 -7 -8 -17 -12 -23 -8 -5 3 -7 1 -3 -5 3 -6 -3 -13 -13 -17 -13 -4 -18 -11
-14 -22 4 -10 2 -14 -4 -10 -12 8 -12 -11 0 -30 5 -7 5 -13 0 -13 -4 0 -7 -23
-6 -50 1 -33 -2 -48 -9 -44 -6 4 -6 -2 1 -15 7 -11 8 -21 3 -21 -5 0 -8 -14
-6 -31 2 -16 0 -27 -5 -24 -6 3 -6 -8 0 -27 5 -18 9 -35 9 -37 0 -2 6 -1 13 2
113 46 120 48 107 33 -7 -9 -16 -16 -20 -16 -4 0 -29 -10 -56 -22 -27 -12 -51
-22 -54 -21 -3 1 -4 -58 -4 -130 1 -86 -2 -137 -10 -146 -8 -12 -8 -13 2 -7 9
5 13 3 11 -5 -1 -8 -1 -24 0 -37 1 -20 4 -21 21 -12 11 6 26 8 32 4 6 -4 8 -3
5 3 -4 6 6 16 23 22 17 5 30 8 30 5 0 -3 12 7 27 21 29 26 47 33 41 14 -2 -6
-6 -9 -8 -7 -3 2 -16 -7 -30 -19 -13 -13 -29 -23 -36 -23 -7 0 -14 -3 -16 -7
-4 -11 -85 -63 -97 -63 -5 0 -7 -10 -3 -22 4 -19 3 -21 -9 -13 -8 6 -6 2 4 -7
11 -10 15 -18 10 -18 -5 0 -9 -10 -9 -22 1 -14 -4 -22 -12 -20 -8 1 -11 -2 -7
-8 3 -6 10 -8 15 -5 11 7 7 -45 -4 -64 -6 -9 -5 -12 1 -8 9 6 10 -15 2 -93 -2
-19 0 -41 5 -48 9 -16 -6 -16 -24 1 -8 6 -4 -1 10 -17 14 -16 20 -26 14 -23
-8 4 -11 -10 -10 -46 1 -38 -2 -51 -12 -49 -8 1 -11 -2 -7 -8 3 -6 11 -8 16
-5 5 4 9 2 9 -4 0 -5 -4 -12 -10 -16 -5 -3 -7 -12 -3 -21 3 -9 0 -14 -7 -12
-7 2 -15 -3 -17 -10 -3 -8 1 -10 14 -6 16 6 16 5 -2 -9 -11 -9 -16 -17 -11
-17 6 0 1 -6 -9 -14 -17 -12 -17 -16 -6 -30 13 -15 15 -15 34 1 19 17 19 17
13 -3 -4 -15 -2 -21 9 -21 9 0 14 6 11 13 -3 8 24 31 67 58 77 49 114 75 131
91 35 34 85 58 70 33 -4 -7 -3 -8 4 -4 6 4 9 13 5 21 -4 11 -1 13 11 9 11 -4
16 -2 14 7 -2 8 4 13 14 13 10 -1 15 3 12 8 -3 5 3 12 15 15 11 3 18 10 14 16
-4 6 2 8 15 5 12 -4 20 -2 17 2 -7 11 43 50 63 50 8 0 12 3 9 6 -9 10 41 46
53 39 5 -3 10 1 10 9 0 9 4 16 9 16 5 0 7 10 3 22 -4 16 -2 19 8 13 9 -6 11
-4 4 6 -4 8 -9 29 -11 48 -1 19 -5 36 -8 39 -3 3 3 14 12 24 14 16 14 18 1 13
-10 -4 -17 1 -20 13 -5 16 1 18 54 19 45 1 56 -2 48 -11 -7 -9 -6 -13 5 -13 8
0 12 4 9 9 -3 4 3 8 13 8 14 1 13 4 -7 15 -14 8 -20 14 -14 15 7 0 22 -9 35
-21 13 -11 19 -18 12 -14 -8 3 -15 -4 -19 -20 -3 -14 -11 -22 -17 -18 -6 3 -7
1 -3 -6 9 -14 26 -5 26 15 0 21 13 17 40 -11 17 -18 27 -22 36 -14 7 6 19 7
25 3 7 -4 9 -3 6 3 -4 6 1 17 10 24 14 12 16 12 9 0 -6 -9 -5 -12 5 -9 8 3 30
0 49 -7 19 -6 45 -10 57 -9 13 1 23 -6 26 -17 3 -10 16 -23 29 -28 13 -5 38
-21 55 -35 17 -15 37 -25 44 -24 7 2 14 -5 16 -14 3 -11 -1 -15 -14 -13 -27 4
-51 -22 -47 -53 2 -15 1 -19 -2 -10 -6 21 -34 24 -34 4 0 -7 11 -21 24 -29 20
-14 26 -14 35 -3 7 8 23 17 36 20 14 4 25 13 25 20 0 8 6 16 14 19 8 3 13 -1
12 -11 -1 -18 22 -23 40 -10 7 5 17 2 24 -7 17 -21 37 -19 52 5 7 11 17 20 22
20 4 0 3 -7 -4 -15 -9 -11 -7 -23 12 -57 29 -53 58 -60 93 -22 14 15 25 22 25
17 0 -6 9 -13 20 -16 11 -3 20 -2 20 2 0 11 79 61 97 61 11 0 13 -7 8 -32 -8
-36 -8 -36 -6 -60 1 -18 46 -46 69 -42 6 1 19 2 27 3 9 0 27 13 41 28 13 14
34 31 47 37 12 7 31 26 42 43 11 17 33 39 48 48 26 16 30 16 54 0 l26 -18 -22
-11 c-12 -7 -18 -15 -15 -19 4 -4 0 -7 -9 -7 -9 0 -17 -5 -17 -10 0 -6 5 -9
11 -8 6 2 13 -5 14 -15 3 -15 1 -16 -11 -6 -11 9 -17 9 -29 -1 -14 -12 -14
-15 1 -31 18 -20 64 -26 64 -9 0 5 7 7 15 4 12 -5 12 -9 -3 -23 -10 -9 -11
-11 -3 -6 12 8 13 5 9 -17 -4 -21 -2 -25 11 -20 14 5 14 3 2 -11 -8 -10 -9
-17 -3 -17 6 0 14 9 17 20 3 11 17 23 31 26 23 6 23 7 7 20 -16 12 -16 13 7 8
23 -4 23 -3 -3 7 -22 9 -26 14 -16 25 6 8 9 23 6 34 -6 21 8 37 18 20 6 -10
53 -5 96 11 28 11 72 64 72 86 0 7 4 13 9 13 5 0 7 4 4 9 -3 4 1 17 9 27 8 10
15 29 15 42 0 12 6 22 14 22 20 0 48 30 42 45 -3 8 2 16 10 19 8 3 14 -1 14
-10 0 -8 4 -13 8 -10 5 3 19 -8 31 -24 18 -25 29 -30 62 -30 33 0 47 6 70 31
25 26 27 34 17 47 -11 13 -11 14 2 7 13 -8 13 -7 1 8 -12 15 -11 17 7 17 11 0
30 9 43 19 17 14 29 17 46 10 16 -6 27 -4 38 7 8 9 15 12 15 7 0 -4 5 -1 10 7
16 25 11 62 -12 89 -13 14 -15 19 -6 12 23 -17 31 1 24 58 -2 24 0 39 5 35 5
-3 6 -10 3 -16 -4 -7 -2 -8 4 -4 7 4 12 18 12 31 0 17 8 26 30 34 30 10 38 25
20 36 -5 3 -10 11 -10 16 0 18 27 -5 75 -64 43 -54 50 -58 83 -55 36 3 37 4
54 68 l18 64 -28 30 c-15 16 -38 39 -51 51 -20 18 -22 26 -14 50 l9 28 49 -56
50 -55 41 19 c45 20 45 19 59 155 l6 51 -80 46 c-72 42 -109 76 -96 89 3 2 7
21 9 41 3 21 8 42 11 47 3 6 1 10 -5 10 -6 0 -8 10 -4 27 6 22 4 25 -10 20
-22 -9 -38 30 -42 108 -2 33 -4 60 -4 60 -1 0 -10 41 -21 90 -11 50 -21 95
-22 100 -2 6 -6 16 -10 23 -5 6 -5 17 -2 22 3 6 1 10 -4 10 -16 0 -13 36 3 49
8 7 12 21 9 32 -4 12 0 25 8 30 10 6 10 9 2 9 -7 0 -13 11 -13 24 0 32 -10 57
-20 51 -5 -3 -6 5 -3 16 6 21 7 21 19 4 7 -10 11 -21 9 -25 -2 -4 2 -7 10 -7
11 0 12 4 4 14 -6 7 -8 13 -3 13 4 0 -1 7 -12 15 -17 12 -20 12 -31 -2 -12
-16 -13 -16 -13 0 0 9 -5 17 -11 17 -5 0 -7 -5 -3 -12 4 -6 3 -8 -2 -5 -8 4
-10 41 -5 66 1 2 8 -2 16 -9 8 -7 12 -16 10 -21 -3 -4 4 -6 15 -4 11 2 20 1
20 -3 0 -4 25 -22 55 -40 46 -28 55 -37 51 -55 -3 -12 -3 -16 0 -9 7 14 34 16
34 2 0 -5 -4 -10 -8 -10 -5 0 -9 -7 -9 -16 0 -15 1 -15 12 0 14 19 30 22 19 4
-5 -9 -2 -9 9 1 11 9 21 10 30 4 31 -25 42 -21 41 14 -2 24 5 41 22 59 29 28
43 32 23 7 -12 -16 -12 -17 2 -6 12 10 18 10 27 1 9 -9 12 -9 12 -1 0 6 -5 13
-12 15 -7 3 -9 12 -5 22 4 11 13 16 22 12 8 -3 14 0 12 6 -1 6 19 26 46 45 37
28 50 33 61 24 10 -9 16 -9 21 -1 4 6 1 9 -6 8 -22 -5 -18 17 6 35 17 12 26
14 31 5 5 -7 3 -8 -6 -3 -8 5 -11 4 -6 -3 3 -5 1 -12 -5 -14 -7 -2 -5 -9 5
-17 14 -12 16 -12 11 2 -4 8 -1 18 4 22 6 3 9 11 6 16 -4 5 5 13 19 19 14 5
26 12 26 15 0 4 -4 3 -10 0 -5 -3 -10 -2 -10 2 0 5 9 14 20 20 17 11 18 10 14
-5 -4 -9 3 -3 14 13 19 31 82 80 67 54 -4 -8 4 -1 18 14 16 18 31 26 38 21 8
-5 9 -3 5 5 -5 8 0 14 13 18 15 4 22 17 28 52 4 25 6 50 4 56 -1 5 6 16 16 23
15 12 15 14 1 9 -11 -4 -18 1 -21 15 -3 11 -10 17 -15 14 -6 -3 -13 0 -15 6
-4 10 -6 9 -6 -1 -1 -11 -4 -11 -18 0 -9 8 -14 9 -11 4 4 -6 -8 -10 -30 -10
-23 0 -36 5 -35 12 2 7 -4 10 -12 7 -8 -4 -12 -11 -8 -17 3 -5 1 -7 -5 -4 -5
4 -9 18 -8 31 2 17 -1 23 -11 19 -9 -4 -10 -9 -3 -18 12 -14 3 -25 -19 -25
-14 0 -14 2 -1 10 9 6 10 10 3 10 -6 0 -14 -4 -17 -9 -7 -11 -76 -8 -95 3 -10
6 -12 5 -7 -2 5 -8 2 -10 -8 -6 -9 3 -13 10 -10 15 3 5 0 9 -6 9 -5 0 -24 14
-42 30 -17 17 -37 30 -44 30 -8 0 -14 5 -14 10 0 7 -6 7 -19 1 -15 -8 -18 -7
-17 5 0 9 -9 20 -21 25 -18 6 -23 4 -29 -14 -4 -13 -2 -23 5 -25 9 -3 9 -7 0
-18 -6 -8 -9 -14 -5 -14 4 0 -1 -11 -10 -25 -13 -20 -19 -23 -30 -14 -8 6 -14
8 -14 3 0 -5 -5 -2 -10 6 -9 13 -10 13 -10 0 -1 -8 -5 -5 -11 8 -5 15 -13 20
-21 16 -9 -6 -9 -9 0 -12 7 -2 12 -8 12 -14 0 -6 -12 -3 -26 7 -15 9 -24 13
-20 7 3 -5 -4 -12 -17 -16 -12 -3 -22 -4 -23 -3 0 1 -8 -6 -18 -15 -24 -25
-34 -22 -31 7 2 14 -1 23 -6 20 -5 -3 -18 -1 -29 5 -15 8 -18 8 -14 -4 4 -11
-3 -12 -35 -6 -23 4 -41 4 -41 -1 0 -4 -9 -6 -20 -4 -11 2 -20 1 -20 -3 0 -4
-11 -15 -24 -24 -23 -17 -23 -17 -20 20 1 20 -1 30 -5 24 -4 -7 -15 -10 -25
-6 -10 4 -32 7 -49 8 -20 1 -31 7 -33 18 -1 11 3 15 12 11 8 -3 14 -9 14 -13
0 -5 9 -6 20 -3 12 3 18 8 15 11 -2 3 1 12 8 20 10 13 9 14 -2 7 -11 -6 -13
-4 -7 11 4 10 4 15 0 11 -4 -4 -12 -2 -19 3 -23 19 -49 -16 -54 -73 -1 -5 -6
-5 -13 -1 -6 4 -26 7 -45 6 -24 -1 -32 2 -27 11 5 9 4 9 -7 0 -7 -7 -28 -13
-47 -13 -19 0 -47 -9 -63 -21 -16 -11 -29 -17 -29 -13 0 3 -7 1 -15 -6 -12
-10 -15 -9 -15 6 0 11 -7 28 -15 38 -8 11 -15 16 -15 12 0 -4 -12 6 -26 21
-14 15 -23 23 -20 16 8 -15 -45 -13 -56 2 -5 6 -8 5 -8 -2 0 -7 -5 -13 -11
-13 -5 0 -7 5 -4 10 4 6 -12 1 -35 -11 -42 -22 -50 -20 -62 14 -2 4 -13 9 -25
9 -15 2 -20 8 -17 23 3 19 2 19 -16 -3 -11 -13 -21 -18 -25 -12 -3 5 -1 10 4
10 6 0 11 8 11 18 0 12 -3 14 -8 4 -10 -15 -58 -9 -54 8 1 6 -2 9 -7 6 -5 -3
-8 -17 -7 -30 3 -21 -1 -23 -28 -20 -17 1 -43 7 -58 13 -19 7 -37 7 -54 1 -28
-11 -61 -13 -51 -4 10 10 -12 44 -28 44 -8 0 -15 6 -16 13 -3 54 -9 99 -17
114 -5 10 -9 34 -11 52 -2 43 -7 49 -15 19z m309 -246 c-3 -3 -11 0 -18 7 -9
10 -8 11 6 5 10 -3 15 -9 12 -12z m159 -67 c-4 -8 -8 -15 -10 -15 -2 0 -4 7
-4 15 0 8 4 15 10 15 5 0 7 -7 4 -15z m1046 -36 c0 -5 -4 -9 -10 -9 -5 0 -10
7 -10 16 0 8 5 12 10 9 6 -3 10 -10 10 -16z m160 -4 c0 -9 -6 -12 -15 -9 -8 4
-12 10 -9 15 8 14 24 10 24 -6z m-688 -154 c18 -10 41 -17 51 -16 9 2 17 -1
17 -6 0 -5 5 -8 12 -6 7 1 12 -3 13 -10 0 -6 4 -15 9 -20 5 -4 6 -3 2 4 -6 11
26 37 35 29 5 -5 65 -17 92 -19 9 -1 17 -5 17 -10 0 -4 5 -5 10 -2 6 3 10 0
10 -7 0 -9 3 -9 10 2 8 12 10 12 10 -5 0 -11 4 -15 8 -10 9 12 54 16 46 4 -3
-5 -10 -7 -15 -4 -5 4 -9 -1 -9 -9 0 -10 -6 -13 -15 -10 -9 4 -15 0 -15 -9 0
-8 -13 -21 -30 -29 -33 -14 -65 -67 -50 -82 6 -6 3 -15 -8 -23 -13 -10 -13
-12 -2 -8 11 4 16 -1 16 -13 0 -14 -6 -17 -23 -14 -17 3 -22 0 -20 -17 1 -19
9 -25 29 -23 3 1 9 -5 12 -13 8 -23 -12 -27 -32 -7 -10 10 -26 21 -35 25 -19
7 -23 27 -5 27 6 0 8 3 5 6 -4 4 -13 1 -22 -6 -17 -14 -21 0 -4 17 8 8 7 13
-2 18 -8 5 -10 4 -5 -3 4 -7 3 -12 -2 -12 -17 0 -22 13 -10 27 8 11 7 12 -5 7
-11 -4 -20 3 -30 23 -21 41 -29 81 -17 88 5 3 10 11 10 18 0 6 -6 3 -13 -8
-13 -17 -15 -16 -25 15 -7 18 -10 35 -8 39 3 4 -9 7 -26 6 -17 0 -33 5 -35 11
-2 7 8 11 27 9 17 -1 28 0 25 4 -4 3 -15 7 -26 7 -36 3 -38 4 -33 19 8 19 16
19 56 -4z m155 -6 c0 -9 -5 -14 -11 -12 -6 3 -19 0 -28 -5 -10 -5 -18 -5 -18
0 0 4 12 13 28 19 15 6 27 11 28 12 0 1 1 -6 1 -14z m-2275 -1117 c-8 -8 -3
-23 17 -52 37 -56 60 -106 65 -147 6 -46 15 -68 43 -107 20 -27 27 -30 44 -22
10 6 19 8 19 6 0 -3 10 -2 23 3 36 14 98 22 118 16 16 -5 12 -15 -32 -71 -54
-70 -73 -109 -64 -133 6 -15 17 -94 18 -121 0 -8 4 -22 10 -30 5 -8 -2 -2 -17
13 -33 35 -106 43 -106 11 0 -8 -5 -12 -10 -9 -6 4 -7 11 -4 17 5 7 0 9 -12 6
-10 -3 -26 -7 -34 -9 -8 -2 -21 -12 -28 -21 -7 -9 -26 -24 -44 -32 -25 -13
-34 -14 -41 -4 -6 9 -7 8 -4 -4 4 -10 -3 -22 -16 -31 -38 -24 -41 -23 -44 18
-2 22 -4 48 -5 57 -2 18 -18 19 -31 3 -5 -6 -6 -1 -2 10 4 11 10 31 13 45 3
14 10 28 16 32 8 6 8 8 0 8 -14 0 -14 31 -1 48 8 9 7 12 -3 10 -7 -2 -14 8
-17 25 -3 21 1 29 18 36 19 6 20 9 6 14 -10 4 -17 2 -17 -3 0 -6 -4 -10 -8
-10 -5 0 -8 10 -7 23 1 12 -2 27 -7 34 -5 7 -5 14 2 18 5 3 10 12 10 18 0 7
-4 6 -10 -3 -8 -12 -10 -11 -10 7 0 17 -4 21 -17 17 -16 -5 -16 -4 -3 8 17 15
22 31 21 68 -1 39 -6 64 -16 79 -6 11 -4 13 10 7 17 -6 18 -5 3 11 -8 10 -18
25 -22 33 -4 8 1 5 10 -7 18 -25 41 -29 65 -10 22 17 30 46 20 66 -10 19 -6
28 23 51 18 13 19 13 12 0 -4 -8 -1 -7 8 4 8 10 20 15 26 11 6 -3 10 -3 9 2
-3 17 3 27 8 15 3 -8 0 -19 -5 -24z m-95 -40 c0 -7 4 -21 8 -30 4 -11 3 -18
-3 -18 -6 0 -14 9 -17 20 -4 11 -12 18 -18 14 -7 -3 -3 2 7 10 24 19 23 19 23
4z m1582 -1111 c0 -9 -2 -8 -6 1 -2 6 -10 9 -15 6 -7 -4 -8 -2 -4 5 9 13 26 5
25 -12z m76 13 c3 -5 1 -10 -4 -10 -6 0 -11 5 -11 10 0 6 2 10 4 10 3 0 8 -4
11 -10z"/>
<path d="M3495 3540 c4 -6 11 -8 16 -5 14 9 11 15 -7 15 -8 0 -12 -5 -9 -10z"/>
<path d="M3595 3540 c4 -6 11 -8 16 -5 14 9 11 15 -7 15 -8 0 -12 -5 -9 -10z"/>
<path d="M3535 3421 c-3 -5 -2 -12 3 -15 5 -3 9 1 9 9 0 17 -3 19 -12 6z"/>
<path d="M1270 2441 c0 -5 7 -14 15 -21 8 -7 12 -17 8 -23 -3 -6 -1 -7 5 -3
16 10 15 37 0 34 -7 -2 -12 3 -10 10 1 6 -2 12 -8 12 -5 0 -10 -4 -10 -9z"/>
<path d="M1246 2338 c3 -5 10 -6 15 -3 13 9 11 12 -6 12 -8 0 -12 -4 -9 -9z"/>
<path d="M1210 2318 c0 -4 4 -8 9 -8 6 0 12 4 15 8 3 5 -1 9 -9 9 -8 0 -15 -4
-15 -9z"/>
<path d="M1250 1950 c0 -5 5 -10 10 -10 6 0 10 5 10 10 0 6 -4 10 -10 10 -5 0
-10 -4 -10 -10z"/>
<path d="M1565 1929 c-4 -6 -5 -12 -2 -15 2 -3 7 2 10 11 7 17 1 20 -8 4z"/>
<path d="M1355 1831 c-3 -5 -2 -12 3 -15 5 -3 9 1 9 9 0 17 -3 19 -12 6z"/>
<path d="M1254 1765 c0 -23 1 -23 18 -8 10 9 18 21 18 27 0 6 -5 4 -10 -4 -6
-10 -10 -11 -10 -2 0 6 -4 12 -8 12 -4 0 -8 -11 -8 -25z"/>
<path d="M3910 4119 c0 -5 5 -7 10 -4 6 3 10 8 10 11 0 2 -4 4 -10 4 -5 0 -10
-5 -10 -11z"/>
<path d="M3785 4110 c3 -5 8 -10 11 -10 2 0 4 5 4 10 0 6 -5 10 -11 10 -5 0
-7 -4 -4 -10z"/>
<path d="M4065 4110 c3 -5 8 -10 11 -10 2 0 4 5 4 10 0 6 -5 10 -11 10 -5 0
-7 -4 -4 -10z"/>
<path d="M4390 4110 c0 -5 7 -10 16 -10 8 0 12 5 9 10 -3 6 -10 10 -16 10 -5
0 -9 -4 -9 -10z"/>
<path d="M3755 4080 c3 -5 8 -10 11 -10 2 0 4 5 4 10 0 6 -5 10 -11 10 -5 0
-7 -4 -4 -10z"/>
<path d="M3794 4056 c-7 -19 1 -32 24 -38 15 -4 18 0 17 21 -1 29 -31 42 -41
17z"/>
<path d="M3880 4061 c0 -5 7 -15 17 -22 15 -13 15 -12 4 9 -12 23 -21 28 -21
13z"/>
<path d="M4251 4054 c0 -11 3 -14 6 -6 3 7 2 16 -1 19 -3 4 -6 -2 -5 -13z"/>
<path d="M4680 4059 c0 -5 5 -7 10 -4 6 3 10 8 10 11 0 2 -4 4 -10 4 -5 0 -10
-5 -10 -11z"/>
<path d="M4447 4000 c7 -28 22 -35 30 -15 3 10 0 21 -8 26 -22 14 -28 11 -22
-11z"/>
<path d="M3660 3980 c0 -6 7 -10 15 -10 8 0 15 2 15 4 0 2 -7 6 -15 10 -8 3
-15 1 -15 -4z"/>
<path d="M1800 3960 c0 -5 5 -10 11 -10 5 0 7 5 4 10 -3 6 -8 10 -11 10 -2 0
-4 -4 -4 -10z"/>
<path d="M1900 3960 c0 -5 5 -10 11 -10 5 0 7 5 4 10 -3 6 -8 10 -11 10 -2 0
-4 -4 -4 -10z"/>
<path d="M3697 3963 c-2 -5 -3 -16 -1 -26 1 -12 -2 -17 -11 -13 -8 3 -17 0
-21 -7 -4 -7 -4 -9 0 -6 4 4 23 3 42 -1 25 -6 34 -5 34 5 0 27 -12 44 -27 38
-11 -4 -14 -2 -9 5 4 7 5 12 2 12 -3 0 -7 -3 -9 -7z"/>
<path d="M3982 3925 c-1 -13 6 -29 16 -36 15 -13 16 -12 3 4 -7 9 -9 17 -3 17
18 0 21 28 3 33 -12 3 -17 -2 -19 -18z"/>
<path d="M4030 3940 c0 -5 5 -10 10 -10 6 0 10 5 10 10 0 6 -4 10 -10 10 -5 0
-10 -4 -10 -10z"/>
<path d="M1850 3889 c0 -11 4 -18 10 -14 5 3 7 12 3 20 -7 21 -13 19 -13 -6z"/>
<path d="M4595 3890 c3 -5 8 -10 11 -10 2 0 4 5 4 10 0 6 -5 10 -11 10 -5 0
-7 -4 -4 -10z"/>
<path d="M4275 3881 c-3 -5 -2 -12 3 -15 5 -3 9 1 9 9 0 17 -3 19 -12 6z"/>
<path d="M465 3869 c-10 -15 1 -23 20 -15 9 3 13 10 10 16 -8 13 -22 13 -30
-1z"/>
<path d="M2870 3870 c0 -5 5 -10 10 -10 6 0 10 5 10 10 0 6 -4 10 -10 10 -5 0
-10 -4 -10 -10z"/>
<path d="M3736 3862 c-3 -5 1 -9 9 -9 8 0 12 4 9 9 -3 4 -7 8 -9 8 -2 0 -6 -4
-9 -8z"/>
<path d="M4202 3865 c4 -4 -3 -16 -15 -26 -12 -11 -17 -19 -12 -18 21 3 35 -1
35 -10 0 -6 -9 -8 -20 -6 -11 2 -18 0 -15 -5 3 -5 17 -7 30 -4 14 2 25 0 25
-6 0 -6 4 -9 9 -5 5 3 12 1 16 -5 3 -5 16 -10 28 -9 21 0 21 1 2 9 -19 8 -19
9 3 9 33 1 72 30 65 48 -3 8 -13 13 -24 10 -13 -4 -19 0 -19 11 0 14 -2 15 -9
3 -8 -12 -14 -13 -36 -3 -15 7 -24 8 -20 2 8 -13 -1 -13 -28 1 -12 7 -19 8
-15 4z"/>
<path d="M2910 3840 c0 -5 5 -10 11 -10 5 0 7 5 4 10 -3 6 -8 10 -11 10 -2 0
-4 -4 -4 -10z"/>
<path d="M4375 3829 c-4 -6 -5 -12 -2 -15 2 -3 7 2 10 11 7 17 1 20 -8 4z"/>
<path d="M4140 3806 c0 -2 8 -10 18 -17 15 -13 16 -12 3 4 -13 16 -21 21 -21
13z"/>
<path d="M4355 3780 c3 -5 8 -10 11 -10 2 0 4 5 4 10 0 6 -5 10 -11 10 -5 0
-7 -4 -4 -10z"/>
<path d="M4395 3760 c3 -5 8 -10 11 -10 2 0 4 5 4 10 0 6 -5 10 -11 10 -5 0
-7 -4 -4 -10z"/>
<path d="M1810 3666 c5 -14 12 -38 14 -53 9 -48 45 -48 46 0 0 17 -17 39 -53
66 -16 13 -17 12 -7 -13z"/>
<path d="M1510 3669 c0 -6 -4 -8 -9 -5 -5 3 -16 -13 -25 -35 -12 -29 -21 -39
-32 -35 -8 3 -13 2 -10 -3 3 -4 -6 -18 -19 -29 -14 -12 -25 -28 -24 -34 0 -11
2 -11 6 0 2 6 10 9 15 6 7 -4 8 -2 4 4 -4 7 -1 12 7 12 8 0 20 7 27 15 7 9 15
13 18 10 3 -3 -3 -15 -14 -27 -18 -20 -18 -21 -1 -15 10 4 23 7 28 7 6 0 7 5
4 10 -8 12 6 13 38 1 18 -7 26 -5 36 10 6 11 16 17 21 14 6 -4 7 1 3 11 -4 11
-2 15 4 11 8 -5 8 5 1 31 -5 21 -15 39 -21 40 -7 0 -22 3 -34 6 -13 2 -23 0
-23 -5z"/>
<path d="M1719 3652 c14 -26 24 -32 38 -24 16 10 3 28 -25 37 -21 6 -23 5 -13
-13z"/>
<path d="M4665 3660 c-3 -6 1 -7 9 -4 18 7 21 14 7 14 -6 0 -13 -4 -16 -10z"/>
<path d="M4690 3650 c-11 -7 -11 -10 -2 -10 7 0 11 -4 7 -10 -3 -5 -13 -7 -23
-4 -16 5 -16 5 1 -6 9 -6 17 -16 17 -22 0 -6 -7 -5 -17 3 -9 8 -14 9 -10 2 4
-6 4 -13 0 -16 -5 -2 -3 -2 4 -1 7 2 15 -1 18 -6 4 -6 1 -10 -4 -10 -6 0 -11
-5 -11 -12 0 -6 3 -8 7 -5 3 4 12 2 19 -4 9 -8 12 -6 9 8 -2 10 -4 20 -5 23
-1 3 -1 10 0 15 3 13 8 65 6 65 0 0 -8 -5 -16 -10z"/>
<path d="M4635 3610 c3 -5 8 -10 11 -10 2 0 4 5 4 10 0 6 -5 10 -11 10 -5 0
-7 -4 -4 -10z"/>
<path d="M4630 3584 c0 -6 5 -15 11 -21 8 -8 5 -15 -10 -25 -12 -8 -18 -18
-14 -21 3 -4 -2 -7 -12 -7 -18 0 -18 -1 1 -14 10 -8 16 -18 12 -21 -4 -4 -3
-16 3 -26 6 -13 6 -19 -1 -19 -5 0 -11 7 -11 15 -3 31 -4 35 -14 35 -5 0 -10
-6 -10 -13 -1 -6 -5 -28 -9 -48 -5 -24 -4 -45 4 -60 11 -24 11 -24 -10 1 -12
14 -19 20 -16 13 4 -6 -2 -19 -11 -29 -17 -17 -17 -17 -1 -11 10 3 20 1 24 -5
4 -6 3 -8 -3 -5 -6 4 -17 -1 -24 -10 -12 -14 -12 -16 1 -9 10 5 9 2 -2 -6 -9
-8 -20 -28 -23 -44 -10 -47 -10 -48 -18 -61 -5 -7 -5 -17 -2 -23 3 -5 4 -10 1
-10 -3 0 -10 10 -17 21 -6 12 -7 19 -2 16 5 -3 10 3 10 14 2 17 0 17 -13 5 -8
-8 -14 -19 -12 -23 1 -4 -2 -29 -6 -55 -11 -64 -2 -86 33 -84 29 2 80 49 81
74 0 6 5 12 10 12 6 0 10 5 10 11 0 6 9 24 21 40 13 19 18 37 14 51 -4 16 -4
19 3 9 8 -10 14 -5 28 25 9 22 20 43 22 48 3 5 0 6 -6 2 -7 -4 -12 -2 -12 4 0
6 -5 8 -11 4 -6 -3 -4 5 5 18 9 14 17 42 18 62 1 20 6 36 12 36 6 0 4 5 -4 10
-12 8 -12 10 -1 10 8 0 11 7 8 20 -3 10 0 21 6 23 7 2 7 9 -1 23 -6 10 -12 15
-12 9 0 -5 -11 3 -25 19 -14 16 -25 25 -25 20z m30 -43 c0 -5 -7 -16 -15 -25
-9 -8 -11 -17 -6 -21 5 -3 17 5 25 17 9 12 18 19 21 17 2 -3 -4 -15 -15 -26
-10 -12 -16 -24 -12 -27 3 -4 -1 -4 -10 -1 -24 9 -29 30 -12 54 16 23 24 26
24 12z m-15 -81 c3 -5 1 -10 -4 -10 -6 0 -11 5 -11 10 0 6 2 10 4 10 3 0 8 -4
11 -10z m-41 -39 c3 -5 -1 -11 -9 -14 -9 -4 -12 -1 -8 9 6 16 10 17 17 5z m6
-35 c0 -3 -4 -8 -10 -11 -5 -3 -10 -1 -10 4 0 6 5 11 10 11 6 0 10 -2 10 -4z
m40 -71 c0 5 3 6 6 3 9 -9 -15 -48 -29 -48 -8 0 -8 3 -2 8 13 9 13 22 0 42 -8
13 -7 13 8 1 9 -7 17 -10 17 -6z"/>
<path d="M1525 3530 c3 -5 2 -10 -3 -10 -5 0 -7 -11 -4 -25 l4 -26 14 27 c14
26 11 44 -7 44 -6 0 -7 -4 -4 -10z"/>
<path d="M350 3491 c-82 -12 -112 -46 -104 -120 4 -35 45 -80 74 -82 8 0 24
-2 34 -4 25 -5 86 56 87 87 0 12 2 31 4 40 2 9 -10 30 -25 47 -16 16 -26 32
-23 35 4 3 4 5 2 5 -2 -1 -24 -5 -49 -8z"/>
<path d="M4356 3481 c-3 -4 6 -7 19 -7 14 0 22 2 19 5 -8 8 -34 10 -38 2z"/>
<path d="M4722 3338 c-15 -15 -16 -31 0 -26 6 2 12 12 14 21 3 20 2 21 -14 5z"/>
<path d="M4171 3327 c2 -1 13 -9 24 -17 19 -14 19 -14 6 3 -7 9 -18 17 -24 17
-6 0 -8 -1 -6 -3z"/>
<path d="M4204 3296 c-52 -51 -69 -83 -54 -101 7 -9 15 -13 17 -11 7 7 48 -33
48 -47 1 -7 7 -11 15 -9 7 2 17 -3 23 -10 6 -9 7 -8 3 5 -3 9 -1 17 4 17 5 0
12 9 15 20 3 11 11 20 16 20 6 0 8 -4 4 -9 -3 -5 -1 -12 4 -16 6 -3 8 5 5 19
-2 14 1 28 7 32 8 5 9 3 4 -6 -5 -8 -4 -11 3 -6 6 4 8 14 5 22 -3 9 0 20 8 25
11 7 11 9 -2 9 -9 0 -19 9 -22 20 -3 12 -14 20 -27 20 -11 0 -19 4 -16 9 4 5
-3 7 -14 4 -16 -4 -19 -2 -14 11 8 21 5 19 -32 -18z"/>
<path d="M4148 3303 c6 -2 18 -2 25 0 6 3 1 5 -13 5 -14 0 -19 -2 -12 -5z"/>
<path d="M4113 3293 c-22 -8 -14 -22 8 -18 12 3 24 6 26 8 6 7 -21 14 -34 10z"/>
<path d="M4704 3287 c-5 -6 -18 -28 -28 -47 -10 -19 -26 -44 -35 -55 -60 -74
-80 -128 -32 -86 12 11 27 21 32 23 6 2 11 10 12 18 4 23 58 134 69 141 7 4 7
9 0 13 -5 3 -14 0 -18 -7z"/>
<path d="M4135 3260 c-3 -5 -1 -10 4 -10 6 0 11 5 11 10 0 6 -2 10 -4 10 -3 0
-8 -4 -11 -10z"/>
<path d="M4095 3250 c-3 -5 -12 -7 -20 -3 -8 3 -15 3 -15 0 0 -13 30 -14 40
-1 7 8 10 14 7 14 -3 0 -8 -4 -12 -10z"/>
<path d="M1070 3239 c0 -5 5 -7 10 -4 6 3 10 8 10 11 0 2 -4 4 -10 4 -5 0 -10
-5 -10 -11z"/>
<path d="M4434 3215 c-3 -8 -3 -19 1 -25 3 -5 3 -10 -2 -10 -4 0 -8 -18 -8
-39 0 -59 13 -35 17 32 4 58 2 69 -8 42z"/>
<path d="M3830 3179 c0 -5 5 -7 10 -4 6 3 10 8 10 11 0 2 -4 4 -10 4 -5 0 -10
-5 -10 -11z"/>
<path d="M4130 3180 c0 -5 5 -10 11 -10 5 0 7 5 4 10 -3 6 -8 10 -11 10 -2 0
-4 -4 -4 -10z"/>
<path d="M4149 3143 c-13 -16 -12 -17 4 -4 16 13 21 21 13 21 -2 0 -10 -8 -17
-17z"/>
<path d="M4285 3129 c-4 -5 -4 -13 -1 -16 3 -4 6 0 6 8 0 11 2 11 10 -1 6 -9
10 -10 10 -3 0 17 -17 25 -25 12z"/>
<path d="M3902 3115 c-41 -22 -67 -58 -67 -92 -1 -20 4 -33 11 -33 7 0 14 -4
16 -9 2 -6 15 -12 30 -15 15 -2 32 -7 37 -10 5 -3 16 6 26 20 9 14 22 24 28
21 8 -3 12 7 11 27 -1 17 3 36 8 43 13 17 -15 45 -36 37 -10 -4 -18 0 -22 10
-7 18 -11 19 -42 1z"/>
<path d="M483 3105 c-66 -15 -143 -64 -143 -91 0 -7 -7 -14 -15 -18 -8 -3 -15
-13 -15 -21 0 -9 -4 -14 -9 -11 -5 4 -8 -2 -6 -11 1 -10 -2 -23 -7 -30 -8 -10
-12 -25 -22 -90 -1 -7 -5 -16 -9 -19 -4 -4 -2 -13 4 -20 6 -8 9 -21 5 -29 -3
-8 -1 -15 5 -15 6 0 7 -5 4 -11 -4 -5 1 -19 11 -30 10 -11 12 -19 6 -19 -7 0
-12 5 -12 12 0 6 -3 8 -6 5 -9 -9 16 -38 27 -31 5 3 6 -3 2 -12 -4 -12 -3 -15
5 -10 7 4 12 3 12 -3 0 -5 -6 -12 -12 -14 -10 -4 -10 -6 -1 -6 6 -1 15 4 18 9
7 11 50 -37 50 -55 0 -5 5 -10 10 -11 6 0 37 -9 70 -19 67 -22 114 -25 165
-12 19 4 43 9 52 10 9 1 24 11 33 22 9 11 14 13 10 5 -4 -10 -2 -9 8 3 16 19
32 24 21 5 -4 -7 -3 -8 4 -4 6 4 9 12 6 19 -2 7 6 22 18 33 l23 19 -20 -25
-20 -25 22 19 c12 10 22 21 21 25 -2 9 14 45 23 51 8 5 20 56 23 95 0 11 6 23
11 27 7 5 6 8 0 8 -6 0 -11 10 -12 23 -7 97 -66 183 -155 226 -74 35 -133 43
-205 26z"/>
<path d="M3770 3100 c0 -5 5 -10 11 -10 5 0 7 5 4 10 -3 6 -8 10 -11 10 -2 0
-4 -4 -4 -10z"/>
<path d="M4190 3098 c0 -11 12 -10 30 2 12 7 10 9 -8 7 -12 0 -22 -5 -22 -9z"/>
<path d="M4425 3060 c3 -5 11 -10 16 -10 6 0 7 5 4 10 -3 6 -11 10 -16 10 -6
0 -7 -4 -4 -10z"/>
<path d="M4016 3007 c3 -10 9 -15 12 -12 3 3 0 11 -7 18 -10 9 -11 8 -5 -6z"/>
<path d="M4040 2995 c-7 -8 -20 -15 -30 -15 -10 0 -21 -7 -24 -16 -3 -8 -10
-13 -15 -9 -5 3 -13 0 -17 -6 -4 -8 -3 -9 4 -5 8 5 12 -2 12 -19 0 -32 22 -56
40 -45 7 4 18 6 24 4 6 -2 16 0 22 4 14 9 45 74 39 80 -3 3 -5 -1 -5 -8 0 -9
-6 -8 -20 5 -21 19 -28 41 -8 29 7 -4 8 -3 4 4 -9 15 -11 15 -26 -3z"/>
<path d="M918 2888 c3 -14 2 -19 -6 -14 -19 11 -14 1 14 -30 15 -16 24 -24 20
-18 -3 7 0 14 8 17 8 3 14 12 12 19 -3 22 -17 39 -27 33 -5 -4 -9 -1 -9 4 0 6
-4 11 -9 11 -5 0 -7 -10 -3 -22z"/>
<path d="M1039 2872 c-1 -4 -1 -10 0 -14 0 -5 -4 -8 -10 -8 -5 0 -7 -4 -4 -10
10 -15 23 -12 34 9 8 14 7 20 -4 25 -8 3 -16 2 -16 -2z"/>
<path d="M4411 2801 c-12 -21 -5 -31 21 -31 11 0 18 7 18 19 0 26 -27 34 -39
12z"/>
<path d="M1107 2729 c-3 -10 -1 -22 4 -25 5 -3 7 -9 4 -14 -3 -5 0 -12 7 -16
7 -4 10 -4 6 0 -3 4 2 16 13 27 10 10 16 24 14 32 -8 20 -42 18 -48 -4z"/>
<path d="M1106 2655 c3 -7 12 -16 19 -19 9 -3 12 0 9 9 -3 7 -12 16 -19 19 -9
3 -12 0 -9 -9z"/>
<path d="M872 2628 c-20 -20 -14 -35 18 -48 16 -7 27 -17 23 -23 -3 -6 -1 -7
6 -3 6 4 8 13 4 19 -4 7 -6 20 -4 31 1 10 -3 23 -11 27 -17 12 -22 11 -36 -3z"/>
<path d="M4590 2630 c0 -5 4 -10 9 -10 6 0 13 5 16 10 3 6 -1 10 -9 10 -9 0
-16 -4 -16 -10z"/>
<path d="M331 2625 c0 -5 6 -19 14 -29 8 -11 15 -15 15 -10 0 6 -7 19 -15 30
-8 10 -14 15 -14 9z"/>
<path d="M4110 2449 c0 -5 5 -7 10 -4 6 3 10 8 10 11 0 2 -4 4 -10 4 -5 0 -10
-5 -10 -11z"/>
<path d="M960 2390 c0 -5 5 -10 10 -10 6 0 10 5 10 10 0 6 -4 10 -10 10 -5 0
-10 -4 -10 -10z"/>
<path d="M4095 2380 c-3 -5 -1 -10 4 -10 6 0 11 5 11 10 0 6 -2 10 -4 10 -3 0
-8 -4 -11 -10z"/>
<path d="M983 2363 c-18 -6 -16 -38 2 -53 17 -14 28 -8 32 19 3 22 -16 40 -34
34z"/>
<path d="M538 2313 c7 -3 16 -2 19 1 4 3 -2 6 -13 5 -11 0 -14 -3 -6 -6z"/>
<path d="M5030 2130 c0 -5 5 -10 10 -10 6 0 10 5 10 10 0 6 -4 10 -10 10 -5 0
-10 -4 -10 -10z"/>
<path d="M695 2080 c-3 -5 1 -10 10 -10 9 0 13 5 10 10 -3 6 -8 10 -10 10 -2
0 -7 -4 -10 -10z"/>
<path d="M4516 1982 c-8 -13 11 -35 23 -28 16 10 14 36 -3 36 -8 0 -17 -4 -20
-8z"/>
<path d="M543 1965 c0 -11 4 -12 14 -4 7 6 13 13 13 15 0 2 -6 4 -13 4 -8 0
-14 -7 -14 -15z"/>
<path d="M580 1970 c0 -5 5 -10 11 -10 5 0 7 5 4 10 -3 6 -8 10 -11 10 -2 0
-4 -4 -4 -10z"/>
<path d="M3653 1953 c-18 -7 -16 -33 2 -33 8 0 15 9 15 20 0 11 -1 20 -2 19
-2 0 -9 -3 -15 -6z"/>
<path d="M487 1922 c-11 -12 -13 -22 -7 -32 5 -8 10 -12 10 -7 0 4 19 -2 43
-13 40 -20 41 -20 20 -1 -13 11 -23 31 -23 45 0 30 -20 34 -43 8z"/>
<path d="M896 1908 c-9 -12 -16 -28 -16 -35 0 -17 69 -63 86 -56 24 9 16 62
-12 88 -33 31 -39 31 -58 3z"/>
<path d="M677 1784 c-9 -10 4 -34 19 -34 8 0 14 9 14 20 0 19 -19 27 -33 14z"/>
<path d="M930 1755 c0 -9 5 -15 11 -13 6 2 11 8 11 13 0 5 -5 11 -11 13 -6 2
-11 -4 -11 -13z"/>
<path d="M4515 1760 c3 -5 8 -10 11 -10 2 0 4 5 4 10 0 6 -5 10 -11 10 -5 0
-7 -4 -4 -10z"/>
<path d="M5090 1719 c0 -5 5 -7 10 -4 6 3 10 8 10 11 0 2 -4 4 -10 4 -5 0 -10
-5 -10 -11z"/>
<path d="M930 1700 c0 -5 5 -10 11 -10 5 0 7 5 4 10 -3 6 -8 10 -11 10 -2 0
-4 -4 -4 -10z"/>
<path d="M3747 1693 c-11 -10 -8 -20 7 -26 10 -4 12 0 9 14 -6 21 -7 22 -16
12z"/>
<path d="M3535 1670 c-3 -5 -1 -10 4 -10 6 0 11 5 11 10 0 6 -2 10 -4 10 -3 0
-8 -4 -11 -10z"/>
<path d="M1693 1624 c21 -26 22 -41 2 -24 -23 19 -25 8 -4 -14 17 -18 19 -18
25 -2 5 12 -1 25 -17 39 -21 20 -22 20 -6 1z"/>
<path d="M1566 1619 c15 -23 12 -102 -5 -132 -12 -21 -13 -32 -5 -45 6 -9 14
-16 18 -14 4 2 16 -6 25 -17 16 -19 20 -19 31 -6 7 8 16 13 20 10 12 -7 91 35
85 45 -4 6 -1 10 6 10 8 0 7 5 -2 17 -12 14 -12 15 -1 9 11 -7 12 -4 4 11 -6
10 -22 25 -36 32 -14 8 -23 18 -20 23 3 4 0 8 -6 8 -6 0 -8 5 -4 12 4 6 3 8
-3 5 -6 -4 -19 3 -29 14 -10 11 -27 19 -38 17 -12 -1 -27 2 -35 6 -11 7 -12 6
-5 -5z"/>
<path d="M3585 1576 c-44 -23 -100 -49 -125 -60 -25 -10 -64 -26 -87 -37 -24
-10 -45 -19 -48 -19 -16 0 -55 -52 -49 -63 6 -9 3 -8 -8 1 -14 11 -18 10 -27
-5 -6 -10 -11 -15 -11 -10 0 4 -10 1 -23 -8 -13 -8 -27 -12 -32 -8 -4 5 -2 -2
6 -14 12 -20 15 -21 31 -6 10 9 15 21 11 27 -3 6 -2 7 3 3 5 -5 10 -13 10 -18
1 -5 2 -12 3 -16 0 -3 9 1 19 10 25 23 70 18 78 -7 4 -12 2 -22 -5 -24 -6 -2
-9 -7 -6 -12 3 -5 -4 -11 -15 -15 -16 -5 -17 -9 -7 -20 10 -11 17 -8 40 17 18
20 34 28 47 25 34 -9 134 78 214 187 29 39 55 79 59 89 4 11 12 15 18 11 8 -4
9 -3 5 4 -9 15 -7 16 -101 -32z m-370 -216 c-3 -5 -12 -10 -18 -10 -7 0 -6 4
3 10 19 12 23 12 15 0z"/>
<path d="M5086 1607 c3 -10 9 -15 12 -12 3 3 0 11 -7 18 -10 9 -11 8 -5 -6z"/>
<path d="M1752 1587 c1 -14 5 -24 9 -21 9 5 6 31 -4 40 -4 4 -6 -4 -5 -19z"/>
<path d="M1712 1561 c-11 -6 -10 -10 4 -15 9 -3 19 -4 22 -1 3 3 0 5 -7 5 -7
0 -9 5 -6 10 7 12 4 12 -13 1z"/>
<path d="M3415 1540 c-3 -6 1 -13 10 -16 19 -8 30 0 20 15 -8 14 -22 14 -30 1z"/>
<path d="M1996 1515 c-3 -9 0 -15 9 -15 16 0 20 16 6 24 -5 3 -11 -1 -15 -9z"/>
<path d="M924 1499 c-8 -14 -6 -15 36 -22 19 -3 30 -3 23 -1 -7 3 -10 11 -7
17 6 16 -42 21 -52 6z"/>
<path d="M970 1445 c0 -8 -7 -15 -15 -15 -8 0 -15 -4 -15 -9 0 -14 14 -21 25
-13 11 8 20 52 11 52 -3 0 -6 -7 -6 -15z"/>
<path d="M845 1398 c-14 -13 -27 -33 -30 -45 -3 -19 3 -24 33 -33 20 -5 49
-10 64 -10 21 0 26 4 23 23 -4 34 -35 87 -50 87 -8 0 -25 -10 -40 -22z"/>
<path d="M1415 1380 c-3 -5 -1 -10 5 -10 6 0 8 -6 4 -12 -4 -7 -3 -9 1 -5 12
10 15 37 5 37 -5 0 -12 -4 -15 -10z"/>
<path d="M1455 1380 c3 -5 8 -10 11 -10 2 0 4 5 4 10 0 6 -5 10 -11 10 -5 0
-7 -4 -4 -10z"/>
<path d="M2960 1362 c9 -19 30 -23 30 -5 0 4 -3 3 -7 0 -3 -4 -12 1 -20 11
-13 15 -13 15 -3 -6z"/>
<path d="M3093 1369 c-21 -7 -28 -19 -24 -41 0 -4 -6 -5 -13 -2 -15 6 -40 -29
-29 -40 3 -3 2 -6 -3 -6 -6 0 -15 5 -20 10 -7 7 -11 6 -11 -3 0 -16 67 -18 80
-2 6 7 10 6 13 -1 7 -17 64 13 64 33 0 9 6 13 15 9 21 -8 19 8 -5 29 -11 10
-20 15 -20 10 0 -4 -6 -3 -12 3 -8 6 -22 6 -35 1z m50 -15 c4 -1 10 -2 13 -3
11 -2 -18 -31 -30 -30 -6 0 -5 3 2 6 10 4 9 10 -5 26 -12 13 -13 17 -3 11 8
-5 18 -9 23 -10z m-96 -53 c0 -11 -5 -18 -9 -15 -4 3 -5 11 -1 19 7 21 12 19
10 -4z m63 3 c0 -8 -19 -13 -24 -6 -3 5 1 9 9 9 8 0 15 -2 15 -3z"/>
<path d="M576 1331 c-4 -7 -5 -15 -2 -18 9 -9 19 4 14 18 -4 11 -6 11 -12 0z"/>
<path d="M1989 1321 c-5 -29 -3 -34 12 -36 10 -2 15 4 14 18 -2 22 -24 37 -26
18z"/>
<path d="M2270 1305 c-10 -12 -8 -16 11 -24 13 -5 26 -6 29 -3 3 2 -1 7 -8 9
-6 3 -10 9 -7 13 10 16 -13 20 -25 5z"/>
<path d="M2362 1308 c-17 -17 -15 -35 4 -42 21 -8 55 21 47 40 -6 17 -35 18
-51 2z"/>
<path d="M1363 1298 c-19 -25 -23 -48 -8 -48 19 0 36 32 26 49 -6 9 -10 9 -18
-1z"/>
<path d="M1315 1281 c-3 -5 -2 -12 3 -15 5 -3 9 1 9 9 0 17 -3 19 -12 6z"/>
<path d="M1397 1277 c-3 -8 1 -14 9 -14 8 0 14 6 14 14 0 7 -4 13 -9 13 -5 0
-11 -6 -14 -13z"/>
<path d="M1600 1273 c0 -7 -5 -12 -11 -10 -16 3 -22 -20 -7 -26 19 -7 38 17
27 34 -6 10 -9 10 -9 2z"/>
<path d="M2073 1256 c-9 -11 -8 -17 6 -30 20 -18 31 -12 31 17 0 16 -2 17 -15
7 -13 -11 -14 -10 -9 4 7 19 3 20 -13 2z"/>
<path d="M3217 1264 c-3 -3 -3 -13 0 -22 4 -9 2 -13 -4 -9 -5 3 -10 0 -10 -7
0 -7 6 -13 13 -13 7 0 10 5 7 10 -3 6 -1 7 5 3 6 -3 9 -17 6 -29 -5 -29 26
-33 34 -5 2 10 9 18 14 18 6 0 0 8 -13 18 -15 13 -19 21 -11 26 7 4 12 3 12
-2 0 -6 7 -13 16 -16 14 -5 15 -4 5 8 -9 11 -9 15 1 19 7 2 -1 4 -18 3 -25 0
-31 -5 -29 -18 2 -10 0 -18 -6 -18 -8 0 -13 15 -10 33 1 9 -4 9 -12 1z m48
-43 c3 -5 1 -12 -5 -16 -5 -3 -10 1 -10 9 0 18 6 21 15 7z"/>
<path d="M4587 1263 c-12 -11 -8 -23 8 -23 8 0 15 7 15 15 0 16 -12 20 -23 8z"/>
<path d="M1222 1224 c-61 -28 -102 -68 -96 -91 3 -10 18 -26 35 -35 26 -15 34
-32 30 -63 -1 -5 4 -3 11 6 7 9 21 15 31 13 9 -1 17 2 17 8 0 5 8 8 18 7 9 -1
25 1 35 6 16 7 16 8 2 19 -15 11 -14 14 4 38 12 14 21 36 21 47 0 12 6 21 13
21 9 0 9 2 -1 9 -8 4 -13 11 -13 15 3 21 -2 25 -29 24 -17 -1 -52 -11 -78 -24z"/>
<path d="M1376 1235 c-9 -26 -7 -32 5 -12 6 10 9 21 6 23 -2 3 -7 -2 -11 -11z"/>
<path d="M2930 1239 c0 -5 5 -7 10 -4 6 3 10 8 10 11 0 2 -4 4 -10 4 -5 0 -10
-5 -10 -11z"/>
<path d="M3170 1235 c14 -17 -11 -37 -30 -25 -8 5 -18 6 -24 3 -5 -3 -6 -1 -2
5 5 9 13 9 26 2 13 -7 21 -7 25 0 9 14 -11 15 -105 7 -24 -2 -46 -9 -48 -16
-2 -6 -8 -9 -13 -5 -5 3 -9 0 -9 -6 0 -6 -5 -8 -10 -5 -6 4 -9 1 -8 -6 2 -7
-4 -13 -12 -14 -8 0 -15 -7 -15 -15 0 -8 -4 -19 -10 -23 -6 -5 -4 -7 5 -4 8 2
14 13 12 23 -2 16 -1 16 7 4 6 -8 8 -26 5 -40 -4 -24 -4 -24 5 -2 13 27 16 28
18 1 1 -14 -7 -23 -28 -31 -28 -9 -28 -11 -12 -24 10 -7 14 -14 9 -14 -6 0 -1
-6 10 -14 13 -10 23 -11 31 -4 15 12 17 48 3 48 -5 0 -10 5 -10 11 0 6 7 9 15
5 19 -7 56 23 48 38 -3 6 -2 7 2 3 12 -10 15 -38 4 -31 -5 3 -9 -2 -9 -10 0
-9 -5 -15 -12 -14 -6 2 -12 -9 -13 -24 -2 -24 0 -26 19 -16 19 10 20 10 7 -6
-12 -14 -12 -16 3 -10 9 3 16 1 16 -5 0 -22 39 -10 59 17 18 26 26 76 11 67
-4 -2 -7 12 -7 31 0 31 2 33 11 16 9 -17 13 -18 24 -6 7 8 17 12 22 9 4 -3 7
3 5 12 -2 10 -4 22 -4 26 -1 5 -6 5 -13 1 -7 -5 -8 -3 -3 6 6 10 13 7 27 -11
11 -13 17 -18 13 -11 -3 6 -1 12 5 12 6 0 8 5 5 10 -4 6 -10 8 -15 5 -10 -6
-33 29 -25 37 3 3 -2 5 -10 5 -10 0 -12 -4 -5 -12z m-83 -46 c-9 -6 -17 -17
-17 -24 0 -8 -5 -15 -11 -15 -11 0 -4 15 19 43 8 9 18 15 21 11 3 -3 -2 -10
-12 -15z m93 -15 c0 -2 -7 -4 -15 -4 -8 0 -15 4 -15 10 0 5 7 7 15 4 8 -4 15
-8 15 -10z m-185 -14 c3 -5 1 -10 -4 -10 -6 0 -11 5 -11 10 0 6 2 10 4 10 3 0
8 -4 11 -10z m22 -35 c0 -8 -4 -15 -9 -15 -10 0 -11 14 -1 23 9 10 10 9 10 -8z
m66 -82 c-4 -10 -2 -14 5 -9 6 3 13 2 16 -3 4 -5 -1 -8 -9 -7 -20 3 -28 13
-20 25 10 17 15 13 8 -6z"/>
<path d="M930 1220 c0 -5 5 -10 10 -10 6 0 10 5 10 10 0 6 -4 10 -10 10 -5 0
-10 -4 -10 -10z"/>
<path d="M2870 1221 c0 -6 4 -13 10 -16 6 -3 7 1 4 9 -7 18 -14 21 -14 7z"/>
<path d="M3834 1151 c-101 -48 -215 -186 -201 -243 3 -10 2 -18 -2 -18 -7 0 1
-67 13 -115 13 -50 32 -95 38 -95 5 0 8 -6 8 -14 0 -22 76 -85 138 -112 70
-31 185 -36 245 -10 32 14 37 14 37 1 0 -8 5 -15 11 -15 6 0 9 9 6 20 -3 13 0
20 9 20 8 0 14 5 14 10 0 6 7 10 16 10 9 0 12 5 8 12 -5 8 -2 9 10 5 10 -4 15
-3 11 3 -3 5 4 14 15 20 11 6 18 15 15 21 -4 5 -1 9 5 9 6 0 9 4 6 9 -3 5 1
12 10 15 8 3 12 10 9 16 -3 6 1 13 10 16 11 5 13 10 5 19 -8 10 -8 15 1 21 8
5 9 3 4 -6 -5 -9 -4 -11 4 -6 6 4 9 18 7 31 -5 25 18 43 30 24 4 -6 15 0 27
15 16 20 24 23 39 15 13 -7 18 -7 16 3 -2 6 2 12 7 13 19 2 120 55 104 55 -8
0 -24 -7 -35 -15 -10 -8 -27 -15 -36 -15 -10 0 -18 -4 -18 -8 0 -5 -6 -9 -12
-10 -28 -2 -47 -9 -62 -21 -13 -11 -16 -11 -16 -1 0 9 -6 7 -19 -5 -19 -16
-20 -16 -18 3 0 11 5 18 9 16 4 -3 8 -1 8 5 0 5 9 8 20 6 21 -4 27 9 10 20 -5
3 -10 2 -10 -2 0 -5 -9 -9 -19 -10 -12 -1 -20 5 -20 15 1 29 -9 76 -22 107 -7
17 -13 37 -15 45 -4 24 -95 101 -144 123 -31 14 -71 21 -130 24 -77 2 -92 0
-146 -26z"/>
<path d="M4466 1154 c-11 -7 -24 -10 -30 -6 -18 11 -36 11 -36 0 0 -6 7 -7 16
-4 8 3 12 2 9 -3 -3 -6 -14 -9 -25 -8 -10 1 -16 5 -14 9 3 4 -2 8 -11 8 -10 0
-13 -5 -9 -12 5 -7 3 -8 -7 -2 -21 13 -49 15 -49 3 0 -6 -9 -8 -22 -4 -17 6
-20 4 -14 -10 5 -14 3 -15 -6 -8 -10 8 -39 10 -67 4 -2 -1 2 -8 9 -16 9 -11
17 -12 30 -5 10 6 26 7 36 3 14 -5 16 -3 10 13 -6 15 -5 17 5 7 7 -7 21 -13
31 -13 10 0 18 6 18 13 0 7 3 8 8 2 8 -12 113 -15 106 -4 -6 10 33 23 68 24
14 0 30 4 35 9 4 5 3 6 -4 3 -6 -4 -14 -1 -16 5 -4 10 -6 10 -6 0 -1 -8 -6
-10 -13 -5 -21 12 -33 12 -52 -3z"/>
<path d="M4572 1161 c3 -9 20 -15 49 -16 24 -1 54 -5 66 -9 12 -4 24 -3 27 2
3 5 -7 10 -22 11 -58 4 -77 7 -89 14 -8 5 -13 3 -13 -5 0 -10 -3 -9 -11 2 -8
12 -10 12 -7 1z"/>
<path d="M4835 1150 c3 -5 8 -10 11 -10 2 0 4 5 4 10 0 6 -5 10 -11 10 -5 0
-7 -4 -4 -10z"/>
<path d="M1336 1142 c-3 -4 4 -9 15 -9 23 -2 25 3 4 10 -8 4 -16 3 -19 -1z"/>
<path d="M1815 1140 c-11 -18 5 -31 26 -20 11 6 17 15 14 21 -8 12 -32 12 -40
-1z"/>
<path d="M4736 1141 c-4 -5 -2 -12 4 -16 5 -3 10 -3 10 2 0 4 5 1 10 -7 5 -8
10 -10 10 -4 0 17 -27 37 -34 25z"/>
<path d="M1310 1121 c0 -6 4 -13 10 -16 6 -3 7 1 4 9 -7 18 -14 21 -14 7z"/>
<path d="M4470 1119 c0 -6 6 -9 14 -6 8 3 17 3 20 -1 11 -10 36 -11 36 -1 0 6
12 -2 27 -16 31 -28 56 -33 47 -10 -4 8 -17 18 -30 21 -13 3 -24 9 -24 13 0 4
-20 9 -45 9 -27 1 -45 -2 -45 -9z"/>
<path d="M4783 1109 c-2 -20 5 -23 24 -11 9 6 8 11 -5 19 -15 9 -18 7 -19 -8z"/>
<path d="M1035 1090 c3 -5 8 -10 11 -10 2 0 4 5 4 10 0 6 -5 10 -11 10 -5 0
-7 -4 -4 -10z"/>
<path d="M4840 1080 c11 -21 30 -19 30 3 0 7 -4 6 -10 -3 -8 -13 -10 -12 -10
3 0 9 -5 17 -10 17 -7 0 -7 -7 0 -20z"/>
<path d="M1376 1073 c-6 -14 -5 -15 5 -6 7 7 10 15 7 18 -3 3 -9 -2 -12 -12z"/>
<path d="M4618 1069 c-10 -10 -18 -22 -18 -26 0 -30 -171 -150 -193 -136 -6 3
-7 1 -3 -5 4 -6 -3 -12 -16 -14 -24 -3 -28 -20 -6 -26 9 -2 8 0 -2 8 -12 10
-11 11 8 7 12 -3 22 -1 22 5 0 5 5 6 12 2 6 -4 8 -3 5 3 -4 6 5 14 20 18 15 3
39 15 54 26 15 10 31 19 36 19 5 0 16 9 26 20 10 12 22 18 27 15 6 -4 7 1 3
11 -4 11 -2 15 4 11 13 -8 26 20 17 35 -4 6 -1 9 7 6 8 -3 13 -12 11 -22 -2
-9 1 -16 5 -16 5 0 9 9 10 20 1 11 -2 20 -8 20 -5 0 -9 4 -9 10 0 5 6 8 13 6
6 -1 9 -1 4 1 -4 3 -5 9 -1 14 10 16 -11 8 -28 -12z"/>
<path d="M4700 1075 c-9 -11 -9 -15 -1 -15 8 0 6 -8 -4 -23 -8 -13 -12 -27 -8
-30 3 -4 1 -7 -5 -7 -7 0 -12 -5 -12 -12 0 -6 9 -3 20 7 12 10 19 24 16 31 -3
7 -2 15 2 18 5 6 11 46 7 46 -2 0 -8 -7 -15 -15z"/>
<path d="M1090 1060 c0 -6 4 -9 9 -6 5 4 12 1 14 -4 3 -6 4 -5 3 2 -3 15 -26
23 -26 8z"/>
<path d="M4735 1060 c-3 -5 -3 -10 2 -10 4 0 1 -5 -7 -11 -12 -8 -12 -10 -1
-7 8 2 15 12 17 21 3 19 -2 22 -11 7z"/>
<path d="M4775 1060 c-3 -5 -1 -10 4 -10 6 0 11 5 11 10 0 6 -2 10 -4 10 -3 0
-8 -4 -11 -10z"/>
<path d="M2920 1054 c0 -8 33 -34 43 -34 7 0 4 5 -6 11 -9 6 -15 14 -13 18 3
4 -1 8 -9 8 -8 0 -15 -2 -15 -3z"/>
<path d="M265 1040 c-3 -5 1 -10 10 -10 9 0 13 5 10 10 -3 6 -8 10 -10 10 -2
0 -7 -4 -10 -10z"/>
<path d="M4830 1035 c0 -8 2 -15 4 -15 2 0 6 7 10 15 3 8 1 15 -4 15 -6 0 -10
-7 -10 -15z"/>
<path d="M1027 1024 c-8 -8 1 -24 12 -24 4 0 8 7 8 15 0 16 -9 20 -20 9z"/>
<path d="M4756 1013 c-6 -14 -5 -15 5 -6 7 7 10 15 7 18 -3 3 -9 -2 -12 -12z"/>
<path d="M4850 1020 c0 -5 5 -10 11 -10 5 0 7 5 4 10 -3 6 -8 10 -11 10 -2 0
-4 -4 -4 -10z"/>
<path d="M555 1011 c-6 -11 9 -23 19 -14 9 9 7 23 -3 23 -6 0 -12 -4 -16 -9z"/>
<path d="M1580 1010 c0 -5 7 -10 15 -10 8 0 15 5 15 10 0 6 -7 10 -15 10 -8 0
-15 -4 -15 -10z"/>
<path d="M4823 998 c-5 -7 -13 -20 -17 -28 -6 -12 -4 -11 6 1 7 9 16 17 21 17
8 2 11 12 4 18 -2 2 -9 -1 -14 -8z"/>
<path d="M4614 989 c-3 -6 -3 -13 0 -16 3 -4 6 -1 6 7 0 10 3 10 15 0 9 -7 17
-11 20 -9 2 3 -4 10 -15 17 -13 8 -21 8 -26 1z"/>
<path d="M4735 980 c3 -5 8 -10 11 -10 2 0 4 5 4 10 0 6 -5 10 -11 10 -5 0 -7
-4 -4 -10z"/>
<path d="M859 968 c7 -9 9 -23 5 -30 -4 -7 -4 -10 1 -6 4 4 14 3 22 -4 29 -24
21 0 -9 28 -18 16 -26 21 -19 12z"/>
<path d="M1110 960 c0 -5 4 -10 9 -10 6 0 13 5 16 10 3 6 -1 10 -9 10 -9 0
-16 -4 -16 -10z"/>
<path d="M1482 950 c2 -8 -2 -14 -9 -13 -7 2 -10 -4 -7 -12 4 -8 10 -12 15 -9
5 3 9 -1 9 -8 0 -8 5 -5 11 6 9 14 7 22 -6 35 -13 13 -16 13 -13 1z"/>
<path d="M4586 945 c-11 -8 -15 -15 -9 -15 6 0 16 7 23 15 16 19 11 19 -14 0z"/>
<path d="M963 943 c-18 -7 -16 -43 2 -43 25 0 30 4 27 20 -5 21 -15 28 -29 23z"/>
<path d="M2690 940 c0 -5 7 -10 16 -10 8 0 12 5 9 10 -3 6 -10 10 -16 10 -5 0
-9 -4 -9 -10z"/>
<path d="M3558 933 c7 -3 16 -2 19 1 4 3 -2 6 -13 5 -11 0 -14 -3 -6 -6z"/>
<path d="M1400 921 c0 -5 7 -11 15 -15 9 -3 15 0 15 9 0 8 -7 15 -15 15 -8 0
-15 -4 -15 -9z"/>
<path d="M3456 902 c-26 -13 -46 -25 -43 -28 2 -2 17 2 32 10 16 8 32 13 36
11 4 -3 9 2 13 10 3 8 12 12 20 9 8 -3 16 -2 19 3 10 16 -27 8 -77 -15z"/>
<path d="M4715 909 c-11 -16 -1 -19 13 -3 7 8 8 14 3 14 -5 0 -13 -5 -16 -11z"/>
<path d="M1030 899 c0 -5 5 -7 10 -4 6 3 10 8 10 11 0 2 -4 4 -10 4 -5 0 -10
-5 -10 -11z"/>
<path d="M830 883 c0 -5 19 -26 41 -47 30 -27 38 -40 29 -46 -7 -5 -2 -7 14
-7 30 0 76 -38 76 -61 0 -9 -3 -12 -7 -9 -3 4 -12 2 -20 -4 -10 -9 -13 -8 -13
0 0 7 -4 10 -8 7 -5 -3 -15 4 -22 15 -15 20 -45 26 -54 10 -6 -9 22 -26 36
-23 4 1 5 -5 2 -13 -4 -9 0 -15 10 -15 9 0 16 -7 16 -16 0 -8 4 -13 9 -9 5 3
16 -1 24 -9 8 -8 17 -12 21 -9 3 4 6 2 6 -3 0 -5 21 -21 48 -34 56 -30 64 -38
52 -60 -10 -19 -8 -19 79 -20 75 -1 97 22 69 72 -25 43 -64 64 -53 28 5 -15 3
-18 -9 -14 -9 3 -13 10 -10 15 3 5 -1 9 -8 9 -10 0 -9 3 2 11 13 9 13 10 0 6
-8 -2 -14 -12 -12 -22 3 -14 1 -15 -11 -4 -8 8 -12 18 -9 23 3 5 0 6 -6 2 -6
-3 -13 -2 -17 4 -3 5 -15 10 -26 10 -11 0 -17 5 -14 10 3 6 2 10 -4 10 -15 0
-62 46 -54 53 3 4 1 7 -6 7 -6 0 -21 9 -33 20 -12 11 -28 20 -35 20 -7 0 -13
7 -13 15 0 8 -4 15 -8 15 -4 0 -24 16 -45 36 -20 20 -37 32 -37 27z m180 -183
c0 -5 -4 -10 -10 -10 -5 0 -10 5 -10 10 0 6 5 10 10 10 6 0 10 -4 10 -10z"/>
<path d="M4671 874 c0 -11 3 -14 6 -6 3 7 2 16 -1 19 -3 4 -6 -2 -5 -13z"/>
<path d="M3354 853 c-10 -7 -13 -13 -7 -13 7 0 15 5 18 10 4 6 10 8 15 5 5 -3
11 -2 14 3 8 13 -19 10 -40 -5z"/>
<path d="M4615 860 c3 -5 8 -10 11 -10 2 0 4 5 4 10 0 6 -5 10 -11 10 -5 0 -7
-4 -4 -10z"/>
<path d="M346 835 c-3 -8 -1 -15 4 -15 13 0 22 18 11 24 -5 3 -11 -1 -15 -9z"/>
<path d="M746 838 c3 -4 14 -6 24 -5 31 5 32 13 1 12 -16 0 -27 -3 -25 -7z"/>
<path d="M1080 842 c0 -4 10 -9 22 -9 18 -2 20 0 8 7 -18 12 -30 13 -30 2z"/>
<path d="M4588 843 c7 -3 16 -2 19 1 4 3 -2 6 -13 5 -11 0 -14 -3 -6 -6z"/>
<path d="M570 836 c0 -2 8 -10 18 -17 15 -13 16 -12 3 4 -13 16 -21 21 -21 13z"/>
<path d="M4540 830 c-8 -5 -10 -10 -5 -10 6 0 17 5 25 10 8 5 11 10 5 10 -5 0
-17 -5 -25 -10z"/>
<path d="M795 820 c-3 -6 1 -7 9 -4 18 7 21 14 7 14 -6 0 -13 -4 -16 -10z"/>
<path d="M3270 820 c-9 -6 -10 -10 -3 -10 6 0 15 5 18 10 8 12 4 12 -15 0z"/>
<path d="M810 799 c0 -5 5 -7 10 -4 6 3 10 8 10 11 0 2 -4 4 -10 4 -5 0 -10
-5 -10 -11z"/>
<path d="M4455 800 c-3 -5 -1 -10 4 -10 6 0 11 5 11 10 0 6 -2 10 -4 10 -3 0
-8 -4 -11 -10z"/>
<path d="M843 768 c13 -20 27 -24 27 -8 0 6 -5 10 -11 10 -5 0 -8 4 -5 8 3 5
-1 9 -8 9 -11 0 -12 -4 -3 -19z"/>
<path d="M4395 780 c-3 -5 -1 -10 4 -10 6 0 11 5 11 10 0 6 -2 10 -4 10 -3 0
-8 -4 -11 -10z"/>
<path d="M3405 760 c3 -5 8 -10 11 -10 2 0 4 5 4 10 0 6 -5 10 -11 10 -5 0 -7
-4 -4 -10z"/>
<path d="M3185 741 c2 -9 4 -19 4 -23 2 -16 41 -3 41 14 0 10 -3 18 -7 19 -5
0 -15 2 -24 4 -11 2 -16 -3 -14 -14z"/>
<path d="M1920 728 c0 -7 4 -19 9 -26 6 -10 10 -10 20 2 10 12 8 17 -8 26 -16
8 -21 8 -21 -2z"/>
<path d="M5095 730 c3 -5 8 -10 11 -10 2 0 4 5 4 10 0 6 -5 10 -11 10 -5 0 -7
-4 -4 -10z"/>
<path d="M496 658 c2 -3 -2 -9 -8 -12 -11 -5 -11 -7 0 -12 6 -3 9 -10 6 -16
-4 -6 1 -6 13 1 14 7 24 7 34 -2 7 -7 5 -2 -5 11 -11 12 -14 22 -8 22 7 0 12
3 12 8 0 4 -11 7 -24 7 -13 0 -22 -3 -20 -7z"/>
<path d="M3015 620 c-3 -5 -1 -10 4 -10 6 0 11 5 11 10 0 6 -2 10 -4 10 -3 0
-8 -4 -11 -10z"/>
<path d="M61 606 c-9 -10 -9 -16 -1 -21 17 -10 37 12 24 25 -8 8 -15 6 -23 -4z"/>
<path d="M2567 597 c-8 -21 8 -41 25 -31 13 8 13 11 -2 27 -14 14 -19 15 -23
4z"/>
<path d="M1290 499 c0 -5 5 -7 10 -4 6 3 10 8 10 11 0 2 -4 4 -10 4 -5 0 -10
-5 -10 -11z"/>
<path d="M610 490 c0 -5 5 -10 11 -10 5 0 7 5 4 10 -3 6 -8 10 -11 10 -2 0 -4
-4 -4 -10z"/>
<path d="M270 456 c0 -9 7 -16 16 -16 17 0 14 22 -4 28 -7 2 -12 -3 -12 -12z"/>
<path d="M540 460 c0 -5 5 -10 10 -10 6 0 10 5 10 10 0 6 -4 10 -10 10 -5 0
-10 -4 -10 -10z"/>
<path d="M1361 464 c-1 -15 24 -36 32 -27 12 12 7 25 -7 20 -8 -3 -17 -1 -20
6 -3 8 -5 8 -5 1z"/>
<path d="M2745 420 c3 -5 11 -10 16 -10 6 0 7 5 4 10 -3 6 -11 10 -16 10 -6 0
-7 -4 -4 -10z"/>
<path d="M907 414 c-8 -8 1 -24 14 -24 5 0 9 7 9 15 0 15 -12 20 -23 9z"/>
<path d="M1020 366 c0 -2 8 -10 18 -17 15 -13 16 -12 3 4 -13 16 -21 21 -21
13z"/>
<path d="M460 350 c0 -5 5 -10 11 -10 5 0 7 5 4 10 -3 6 -8 10 -11 10 -2 0 -4
-4 -4 -10z"/>
<path d="M783 353 c-18 -7 -16 -23 2 -23 8 0 15 7 15 15 0 8 -1 15 -2 14 -2 0
-9 -3 -15 -6z"/>
<path d="M152 307 c-11 -13 -10 -17 7 -26 13 -7 22 -8 26 -1 3 5 2 10 -4 10
-5 0 -11 7 -13 17 -3 15 -4 15 -16 0z"/>
<path d="M890 249 c0 -5 5 -7 10 -4 6 3 10 8 10 11 0 2 -4 4 -10 4 -5 0 -10
-5 -10 -11z"/>
<path d="M4990 250 c0 -5 5 -10 11 -10 5 0 7 5 4 10 -3 6 -8 10 -11 10 -2 0
-4 -4 -4 -10z"/>
<path d="M4750 130 c0 -5 5 -10 11 -10 5 0 7 5 4 10 -3 6 -8 10 -11 10 -2 0
-4 -4 -4 -10z"/>
<path d="M3900 29 c0 -5 5 -7 10 -4 6 3 10 8 10 11 0 2 -4 4 -10 4 -5 0 -10
-5 -10 -11z"/>
</g>
</svg>
