<svg width="64" height="64" viewBox="0 0 64 64" fill="none" xmlns="http://www.w3.org/2000/svg">
<path d="M11.1254 31.9999L11.1592 44.3782L21.677 50.5674V57.8144L5.00375 48.0355V28.3801L11.1254 31.9999ZM11.1254 19.6215V26.8347L5 23.2112V15.998L11.1254 12.3745L17.2808 15.998L11.1254 19.6215ZM26.0695 15.998L32.1949 12.3745L38.3503 15.998L32.1949 19.6215L26.0695 15.998Z" fill="#F0B90B"/>
<path d="M15.5508 41.8125V34.5656L21.6762 38.189V45.4023L15.5508 41.8125ZM26.0686 53.1631L32.1941 56.7866L38.3495 53.1631V60.3763L32.1941 63.9998L26.0686 60.3763V53.1631ZM47.1344 15.998L53.2598 12.3745L59.4152 15.998V23.2112L53.2598 26.8347V19.6215L47.1344 15.998ZM53.2598 44.3782L53.2935 31.9999L59.419 28.3764V48.0317L42.7457 57.8106V50.5637L53.2598 44.3782Z" fill="#F0B90B"/>
<path d="M48.8686 41.8124L42.7432 45.4021V38.1889L48.8686 34.5654V41.8124Z" fill="#F0B90B"/>
<path d="M48.8674 22.1873L48.9011 29.4343L38.3532 35.6235V48.0318L32.2278 51.6216L26.1024 48.0318V35.6235L15.5545 29.4343V22.1873L21.7062 18.5638L32.1903 24.783L42.7382 18.5638L48.8936 22.1873H48.8674ZM15.5508 9.81267L32.1941 0L48.8674 9.81267L42.7419 13.4362L32.1941 7.21697L21.6762 13.4362L15.5508 9.81267Z" fill="#F0B90B"/>
</svg>
