<svg width="64" height="64" viewBox="0 0 64 64" fill="none" xmlns="http://www.w3.org/2000/svg">
<path d="M10.8641 9.15228L29.7898 23.2086L26.29 14.9156L10.8641 9.15228Z" fill="#E2761B" stroke="#E2761B" stroke-width="0.190208" stroke-linecap="round" stroke-linejoin="round"/>
<path d="M54.5549 9.15228L35.7814 23.3418L39.1101 14.9156L54.5549 9.15228Z" fill="#E4761B" stroke="#E4761B" stroke-width="0.190208" stroke-linecap="round" stroke-linejoin="round"/>
<path d="M17.6736 41.7349L22.7141 49.4573L11.9293 52.4245L8.82895 41.906L17.6736 41.7349Z" fill="#E4761B" stroke="#E4761B" stroke-width="0.190208" stroke-linecap="round" stroke-linejoin="round"/>
<path d="M56.552 41.906L53.4706 52.4245L42.6859 49.4573L47.7264 41.7349L56.552 41.906Z" fill="#E4761B" stroke="#E4761B" stroke-width="0.190208" stroke-linecap="round" stroke-linejoin="round"/>
<path d="M43.2943 28.6866L46.2996 33.2326L35.5909 33.7081L35.9713 22.2005L43.2943 28.6866Z" fill="#E4761B" stroke="#E4761B" stroke-width="0.190208" stroke-linecap="round" stroke-linejoin="round"/>
<path d="M22.1244 28.6866L29.5425 22.0674L29.7898 33.7081L19.1001 33.2326L22.1244 28.6866Z" fill="#E4761B" stroke="#E4761B" stroke-width="0.190208" stroke-linecap="round" stroke-linejoin="round"/>
<path d="M42.6858 49.4573L36.2568 46.3189L41.8108 41.9822L42.6858 49.4573Z" fill="#E4761B" stroke="#E4761B" stroke-width="0.190208" stroke-linecap="round" stroke-linejoin="round"/>
<path d="M29.1621 46.3189L22.7141 49.4573L23.608 41.9822L29.1621 46.3189Z" fill="#E4761B" stroke="#E4761B" stroke-width="0.190208" stroke-linecap="round" stroke-linejoin="round"/>
<path d="M22.7141 49.4573L29.1621 46.3189L28.6485 50.5225L28.7056 52.2914L22.7141 49.4573Z" fill="#D7C1B3" stroke="#D7C1B3" stroke-width="0.190208" stroke-linecap="round" stroke-linejoin="round"/>
<path d="M42.6858 49.4573L36.6942 52.2914L36.7323 50.5225L36.2568 46.3189L42.6858 49.4573Z" fill="#D7C1B3" stroke="#D7C1B3" stroke-width="0.190208" stroke-linecap="round" stroke-linejoin="round"/>
<path d="M36.5988 39.2051L41.9626 37.6264L38.1775 35.8955L36.5988 39.2051Z" fill="#233447" stroke="#233447" stroke-width="0.190208" stroke-linecap="round" stroke-linejoin="round"/>
<path d="M28.8193 39.2051L27.2406 35.8955L23.4365 37.6264L28.8193 39.2051Z" fill="#233447" stroke="#233447" stroke-width="0.190208" stroke-linecap="round" stroke-linejoin="round"/>
<path d="M42.6858 49.4573L41.7728 41.7349L47.7263 41.906L42.6858 49.4573Z" fill="#CD6116" stroke="#CD6116" stroke-width="0.190208" stroke-linecap="round" stroke-linejoin="round"/>
<path d="M23.627 41.7349L22.714 49.4573L17.6734 41.906L23.627 41.7349Z" fill="#CD6116" stroke="#CD6116" stroke-width="0.190208" stroke-linecap="round" stroke-linejoin="round"/>
<path d="M19.1001 33.2326L29.7898 33.7081L28.8007 39.2051L27.222 35.8955L23.4178 37.6264L19.1001 33.2326Z" fill="#CD6116" stroke="#CD6116" stroke-width="0.190208" stroke-linecap="round" stroke-linejoin="round"/>
<path d="M41.9628 37.6264L38.1587 35.8955L36.599 39.2051L35.5909 33.7081L46.2996 33.2326L41.9628 37.6264Z" fill="#CD6116" stroke="#CD6116" stroke-width="0.190208" stroke-linecap="round" stroke-linejoin="round"/>
<path d="M46.2998 33.2326L41.8109 41.9822L41.9631 37.6264L46.2998 33.2326Z" fill="#E4751F" stroke="#E4751F" stroke-width="0.190208" stroke-linecap="round" stroke-linejoin="round"/>
<path d="M23.4177 37.6264L23.6079 41.9822L19.1 33.2326L23.4177 37.6264Z" fill="#E4751F" stroke="#E4751F" stroke-width="0.190208" stroke-linecap="round" stroke-linejoin="round"/>
<path d="M35.591 33.7081L36.5991 39.2051L35.3438 45.6912L35.0584 37.1509L35.591 33.7081Z" fill="#E4751F" stroke="#E4751F" stroke-width="0.190208" stroke-linecap="round" stroke-linejoin="round"/>
<path d="M29.7899 33.7081L30.3035 37.1318L30.0752 45.6912L28.8008 39.2051L29.7899 33.7081Z" fill="#E4751F" stroke="#E4751F" stroke-width="0.190208" stroke-linecap="round" stroke-linejoin="round"/>
<path d="M28.8006 39.2051L30.075 45.6912L29.162 46.3189L23.6079 41.9821L23.4177 37.6264L28.8006 39.2051Z" fill="#F6851B" stroke="#F6851B" stroke-width="0.190208" stroke-linecap="round" stroke-linejoin="round"/>
<path d="M41.9626 37.6264L41.8105 41.9821L36.2564 46.3189L35.3434 45.6912L36.5988 39.2051L41.9626 37.6264Z" fill="#F6851B" stroke="#F6851B" stroke-width="0.190208" stroke-linecap="round" stroke-linejoin="round"/>
<path d="M28.7055 52.2914L28.6485 50.5224L29.124 50.104H36.2948L36.7323 50.5224L36.6942 52.2914L42.6858 49.4573L40.5935 51.1691L36.3519 54.1174H29.0669L24.8063 51.1691L22.714 49.4573L28.7055 52.2914Z" fill="#C0AD9E" stroke="#C0AD9E" stroke-width="0.190208" stroke-linecap="round" stroke-linejoin="round"/>
<path d="M29.1622 46.3188L30.0752 45.6912H35.3439L36.2569 46.3188L36.7324 50.5224L36.2949 50.104H29.1241L28.6486 50.5224L29.1622 46.3188Z" fill="#161616" stroke="#161616" stroke-width="0.190208" stroke-linecap="round" stroke-linejoin="round"/>
<path d="M10.0653 24.1216L8.44849 16.3612L10.8641 9.15228L29.1621 22.7331L22.1244 28.6866L12.1766 31.5968L9.97015 29.029L10.9212 28.3442L9.39953 26.9557L10.5788 26.0427L9.05715 24.8825L10.0653 24.1216Z" fill="#763D16" stroke="#763D16" stroke-width="0.190208" stroke-linecap="round" stroke-linejoin="round"/>
<path d="M56.9514 16.3612L55.3347 24.1216L56.3618 24.8825L54.8401 26.0427L56.0004 26.9557L54.4787 28.3442L55.4298 29.029L53.2424 31.5968L43.2945 28.6866L36.2568 22.7331L54.5548 9.15228L56.9514 16.3612Z" fill="#763D16" stroke="#763D16" stroke-width="0.190208" stroke-linecap="round" stroke-linejoin="round"/>
<path d="M12.1762 31.5968L22.124 28.6866L19.0997 33.2326L23.6077 41.9821L17.6732 41.9061H8.82853L12.1762 31.5968Z" fill="#F6851B" stroke="#F6851B" stroke-width="0.190208" stroke-linecap="round" stroke-linejoin="round"/>
<path d="M43.2945 28.6866L53.2424 31.5968L56.552 41.9061H47.7264L41.8109 41.9821L46.2998 33.2326L43.2945 28.6866Z" fill="#F6851B" stroke="#F6851B" stroke-width="0.190208" stroke-linecap="round" stroke-linejoin="round"/>
<path d="M29.7897 33.7081L29.162 22.7331L26.2708 14.9156H39.1099L36.2567 22.7331L35.591 33.7081L35.3628 37.1699L35.3438 45.6912H30.075L30.037 37.1699L29.7897 33.7081Z" fill="#F6851B" stroke="#F6851B" stroke-width="0.190208" stroke-linecap="round" stroke-linejoin="round"/>
</svg>
