<svg width="64" height="64" viewBox="0 0 64 64" fill="none" xmlns="http://www.w3.org/2000/svg">
<path d="M16.6494 22.2714C25.1273 13.988 38.8728 13.988 47.3508 22.2714L48.3711 23.2683C48.795 23.6824 48.795 24.3539 48.3711 24.7681L44.8807 28.1784C44.6688 28.3854 44.3251 28.3854 44.1132 28.1784L42.7091 26.8065C36.7947 21.0278 27.2055 21.0278 21.2911 26.8065L19.7874 28.2756C19.5754 28.4827 19.2318 28.4827 19.0198 28.2756L15.5295 24.8654C15.1056 24.4512 15.1056 23.7797 15.5295 23.3656L16.6494 22.2714ZM54.5692 29.3241L57.6756 32.3593C58.0995 32.7734 58.0995 33.4449 57.6756 33.8591L43.6685 47.5449C43.2446 47.9591 42.5573 47.9591 42.1334 47.5449C42.1334 47.5449 42.1334 47.5449 42.1334 47.5449L32.192 37.8317C32.086 37.7281 31.9142 37.7281 31.8083 37.8317C31.8083 37.8317 31.8083 37.8317 31.8083 37.8317L21.8671 47.5449C21.4432 47.9591 20.7559 47.9591 20.332 47.5449C20.332 47.5449 20.332 47.5449 20.332 47.5449L6.32451 33.8589C5.90062 33.4447 5.90062 32.7732 6.32451 32.3591L9.43095 29.3239C9.85485 28.9098 10.5421 28.9098 10.966 29.3239L20.9075 39.0373C21.0135 39.1408 21.1853 39.1408 21.2913 39.0373C21.2913 39.0373 21.2913 39.0373 21.2913 39.0373L31.2324 29.3239C31.6562 28.9098 32.3435 28.9097 32.7674 29.3239C32.7674 29.3239 32.7674 29.3239 32.7674 29.3239L42.709 39.0373C42.8149 39.1408 42.9868 39.1408 43.0927 39.0373L53.0341 29.3241C53.458 28.9099 54.1453 28.9099 54.5692 29.3241Z" fill="#3B99FC"/>
</svg>
