<svg width="20" height="20" viewBox="0 0 20 20" fill="none" xmlns="http://www.w3.org/2000/svg">
<path d="M2.5 8.83333C2.5 9.9379 3.39543 10.8333 4.5 10.8333H7.16667C8.27124 10.8333 9.16667 9.9379 9.16667 8.83333V4.5C9.16667 3.39543 8.27124 2.5 7.16667 2.5H4.5C3.39543 2.5 2.5 3.39543 2.5 4.5V8.83333ZM2.5 15.5C2.5 16.6046 3.39543 17.5 4.5 17.5H7.16667C8.27124 17.5 9.16667 16.6046 9.16667 15.5V14.5C9.16667 13.3954 8.27124 12.5 7.16667 12.5H4.5C3.39543 12.5 2.5 13.3954 2.5 14.5V15.5ZM10.8333 15.5C10.8333 16.6046 11.7288 17.5 12.8333 17.5H15.5C16.6046 17.5 17.5 16.6046 17.5 15.5V11.1667C17.5 10.0621 16.6046 9.16667 15.5 9.16667H12.8333C11.7288 9.16667 10.8333 10.0621 10.8333 11.1667V15.5ZM12.8333 2.5C11.7288 2.5 10.8333 3.39543 10.8333 4.5V5.5C10.8333 6.60457 11.7288 7.5 12.8333 7.5H15.5C16.6046 7.5 17.5 6.60457 17.5 5.5V4.5C17.5 3.39543 16.6046 2.5 15.5 2.5H12.8333Z" fill="#2B2E35" fill-opacity="0.5"/>
</svg>
