<svg width="20" height="20" viewBox="0 0 20 20" fill="none" xmlns="http://www.w3.org/2000/svg">
<path d="M10 1.66667C5.40001 1.66667 1.66667 5.40001 1.66667 10C1.66667 14.6 5.40001 18.3333 10 18.3333C14.6 18.3333 18.3333 14.6 18.3333 10C18.3333 5.40001 14.6 1.66667 10 1.66667ZM11.175 15.075V16.6667H8.95001V15.0583C7.52501 14.7583 6.31667 13.8417 6.22501 12.225H7.85834C7.94167 13.1 8.54167 13.7833 10.0667 13.7833C11.7 13.7833 12.0667 12.9667 12.0667 12.4583C12.0667 11.7667 11.7 11.1167 9.84167 10.675C7.77501 10.175 6.35834 9.32501 6.35834 7.61667C6.35834 6.18334 7.51667 5.25001 8.95001 4.94167V3.33334H11.175V4.95834C12.725 5.33334 13.5 6.50834 13.55 7.78334H11.9167C11.875 6.85834 11.3833 6.22501 10.0667 6.22501C8.81667 6.22501 8.06667 6.79167 8.06667 7.59167C8.06667 8.29167 8.60834 8.75001 10.2917 9.18334C11.975 9.61667 13.775 10.3417 13.775 12.4417C13.7667 13.9667 12.625 14.8 11.175 15.075Z" fill="#2B2E35" fill-opacity="0.5"/>
</svg>
