<svg width="20" height="20" viewBox="0 0 20 20" fill="none" xmlns="http://www.w3.org/2000/svg">
<path d="M16.6667 5.00001H14.85C14.9417 4.74167 15 4.45834 15 4.16667C15 2.78334 13.8833 1.66667 12.5 1.66667C11.625 1.66667 10.8667 2.11667 10.4167 2.79167L10 3.35001L9.58334 2.78334C9.13334 2.11667 8.37501 1.66667 7.50001 1.66667C6.11667 1.66667 5.00001 2.78334 5.00001 4.16667C5.00001 4.45834 5.05834 4.74167 5.15001 5.00001H3.33334C2.40834 5.00001 1.67501 5.74167 1.67501 6.66667L1.66667 15.8333C1.66667 16.7583 2.40834 17.5 3.33334 17.5H16.6667C17.5917 17.5 18.3333 16.7583 18.3333 15.8333V6.66667C18.3333 5.74167 17.5917 5.00001 16.6667 5.00001ZM12.5 3.33334C12.9583 3.33334 13.3333 3.70834 13.3333 4.16667C13.3333 4.62501 12.9583 5.00001 12.5 5.00001C12.0417 5.00001 11.6667 4.62501 11.6667 4.16667C11.6667 3.70834 12.0417 3.33334 12.5 3.33334ZM7.50001 3.33334C7.95834 3.33334 8.33334 3.70834 8.33334 4.16667C8.33334 4.62501 7.95834 5.00001 7.50001 5.00001C7.04167 5.00001 6.66667 4.62501 6.66667 4.16667C6.66667 3.70834 7.04167 3.33334 7.50001 3.33334ZM16.6667 15.8333H3.33334V14.1667H16.6667V15.8333ZM16.6667 11.6667H3.33334V6.66667H7.56667L5.83334 9.025L7.18334 10L9.16667 7.3L10 6.16667L10.8333 7.3L12.8167 10L14.1667 9.025L12.4333 6.66667H16.6667V11.6667Z" fill="#2B2E35" fill-opacity="0.5"/>
</svg>
