<svg width="20" height="20" viewBox="0 0 20 20" fill="none" xmlns="http://www.w3.org/2000/svg">
<path d="M10 14.1667C10.9167 14.1667 11.6667 13.4167 11.6667 12.5C11.6667 11.5833 10.9167 10.8333 10 10.8333C9.08334 10.8333 8.33334 11.5833 8.33334 12.5C8.33334 13.4167 9.08334 14.1667 10 14.1667ZM15 6.66666H14.1667V4.99999C14.1667 2.69999 12.3 0.833328 10 0.833328C7.70001 0.833328 5.83334 2.69999 5.83334 4.99999H7.41668C7.41668 3.57499 8.57501 2.41666 10 2.41666C11.425 2.41666 12.5833 3.57499 12.5833 4.99999V6.66666H5.00001C4.08334 6.66666 3.33334 7.41666 3.33334 8.33333V16.6667C3.33334 17.5833 4.08334 18.3333 5.00001 18.3333H15C15.9167 18.3333 16.6667 17.5833 16.6667 16.6667V8.33333C16.6667 7.41666 15.9167 6.66666 15 6.66666ZM15 16.6667H5.00001V8.33333H15V16.6667Z" fill="#2B2E35" fill-opacity="0.5"/>
</svg>
