<svg width="31" height="54" viewBox="0 0 31 54" fill="none" xmlns="http://www.w3.org/2000/svg">
<path fill-rule="evenodd" clip-rule="evenodd" d="M0.765508 13.9591C-0.0181888 14.7375 -0.0181909 15.9995 0.765506 16.7779L10.5642 26.5102L10.5932 26.4816L16.539 32.4309L19.0353 29.9699L21.3103 43.4895L7.71521 41.1298L10.2126 38.6677L4.56361 33.0155L0.765508 36.7879C-0.0181888 37.5662 -0.0181909 38.8283 0.765506 39.6067L13.9429 52.6949C14.7266 53.4733 15.9973 53.4733 16.781 52.6949L29.9584 39.6067C30.7421 38.8283 30.7421 37.5663 29.9584 36.7879L19.8852 26.7829L19.9111 26.7572L13.9558 20.8305L11.4664 23.2979L9.15488 9.78432L22.7564 12.1076L20.2654 14.5766L26.2141 20.4968L29.9584 16.7779C30.7421 15.9995 30.7421 14.7375 29.9584 13.9591L16.781 0.870843C15.9973 0.0924516 14.7266 0.0924495 13.9429 0.870841L0.765508 13.9591Z" fill="url(#paint0_linear_113_96)"/>
<defs>
<linearGradient id="paint0_linear_113_96" x1="3.48804" y1="0.287027" x2="30.5336" y2="1.87051" gradientUnits="userSpaceOnUse">
<stop stop-color="#0066FF"/>
<stop offset="1" stop-color="#0026ED"/>
</linearGradient>
</defs>
</svg>
